<svg width="75" height="33" viewBox="0 0 75 33" fill="none" xmlns="http://www.w3.org/2000/svg">
<path d="M73.8264 11.8795C73.6901 10.8213 72.722 10.0746 71.6638 10.211L70.3235 10.384C70.2784 10.3903 70.2344 10.3977 70.1903 10.406C70.0068 9.87841 69.7792 9.3646 69.5097 8.87379L66.0656 2.59171C65.9596 2.39868 65.9428 2.17023 66.0184 1.96469L66.31 1.16968C66.4976 0.661 66.1066 0.125035 65.5727 0.15981L32.6776 2.27413C30.4333 2.41783 28.3305 3.43819 26.8098 5.1214L21.37 11.1423C20.5928 12.0023 19.5787 12.6032 18.4607 12.8676L6.81754 15.6172C5.18247 16.0043 3.85064 17.2052 3.28108 18.8097L2.27111 21.6528C2.14003 22.0221 1.91876 22.3513 1.63028 22.6114L1.00936 23.1693C0.715755 23.4326 0.530109 23.7975 0.489235 24.193L0.273202 26.2421C0.172515 27.1881 0.905572 28.0113 1.84214 28.005L6.00359 27.9789C6.75869 30.781 9.31759 32.8419 12.358 32.8419C15.4267 32.8419 18.0056 30.7412 18.7334 27.8981L55.3589 27.6651C55.381 27.7712 55.4061 27.875 55.4345 27.9789C56.1896 30.781 58.7486 32.8419 61.7889 32.8419C64.8575 32.8419 67.4364 30.7412 68.1643 27.8981C68.1905 27.7942 68.2147 27.6894 68.2355 27.5835L71.3619 27.5636H71.968C72.5112 27.5636 72.9507 27.1232 72.9507 26.5799V23.6182C72.9507 23.0749 72.5112 22.6345 71.968 22.6345H71.8044C71.818 22.1373 71.796 21.6403 71.7363 21.1463L73.0514 20.9765C74.1096 20.84 74.8563 19.8721 74.7199 18.814L73.8264 11.8795ZM7.98266 19.8994C7.77187 20.3871 7.44359 20.8139 7.02619 21.1443L6.84685 21.2858C6.39596 21.6424 5.85785 21.8711 5.2884 21.9487L4.91508 22.0001C4.4431 22.064 4.07919 21.592 4.26173 21.1527L5.21821 18.8391C5.30209 18.6346 5.48881 18.492 5.70795 18.4626L7.69954 18.1983C8.17462 18.1353 8.53745 18.6146 8.34764 19.0552L7.98266 19.8994ZM15.9542 27.916C15.327 29.2752 13.95 30.2201 12.358 30.2201C10.7827 30.2201 9.42042 29.296 8.78281 27.9611C8.53638 27.4461 8.39889 26.8694 8.39889 26.2611C8.39889 24.0785 10.1744 22.302 12.3579 22.302C14.5404 22.302 16.3169 24.0786 16.3169 26.2611C16.3171 26.8515 16.187 27.4125 15.9542 27.916ZM37.1851 18.4018L34.4153 18.6293C33.9245 18.6693 33.4945 18.3042 33.4536 17.8135C33.4514 17.7892 33.4505 17.7641 33.4505 17.74C33.4505 17.2807 33.8028 16.8907 34.2696 16.8517L37.0393 16.6241C37.5301 16.5842 37.9601 16.9492 38.001 17.44C38.0031 17.4642 38.0042 17.4893 38.0042 17.5134C38.0042 17.9729 37.6518 18.3629 37.1851 18.4018ZM38.3818 14.4197L24.6588 15.0667C24.4292 15.0773 24.2016 15.0154 24.0086 14.8874L23.5136 14.5601C22.9536 14.19 22.856 13.4076 23.3059 12.9105L23.3143 12.8999L28.7552 6.87909C29.8229 5.69717 31.2765 4.99129 32.8464 4.88953L39.3014 4.47501L38.3818 14.4197ZM41.478 4.33527L49.681 3.8084C50.4392 3.75908 51.1482 4.19007 51.4533 4.88643L53.1125 8.67145C53.4711 9.49267 53.5225 10.4155 53.2562 11.2713C52.7905 12.7627 51.4428 13.804 49.8824 13.8774L40.5166 14.319L41.478 4.33527ZM52.6815 18.0231L49.9118 18.2507C49.421 18.2905 48.9909 17.9256 48.9511 17.4347C48.949 17.4096 48.948 17.3845 48.948 17.3593C48.948 16.9009 49.3004 16.5119 49.766 16.4731L52.5357 16.2456C53.0266 16.2056 53.4575 16.5706 53.4975 17.0614C53.4996 17.0856 53.5006 17.1108 53.5006 17.1348C53.5006 17.5943 53.1482 17.9843 52.6815 18.0231ZM65.514 27.6003C65.4762 27.7084 65.4322 27.8132 65.3849 27.916C64.7578 29.2752 63.3808 30.2201 61.7888 30.2201C60.2135 30.2201 58.8512 29.296 58.2136 27.9611C58.1643 27.8594 58.1203 27.7555 58.0804 27.6485C57.9178 27.2165 57.8297 26.7488 57.8297 26.2611C57.8297 24.0785 59.6052 22.302 61.7887 22.302C63.9712 22.302 65.7477 24.0786 65.7477 26.2611C65.7479 26.7309 65.665 27.1819 65.514 27.6003ZM59.7679 13.6761C59.4743 13.6855 59.2047 13.5166 59.0862 13.2482L55.4177 4.99343C55.3799 4.90858 55.3589 4.81624 55.3558 4.724C55.3432 4.32543 55.6547 3.99298 56.0533 3.98046L63.2194 3.7487C63.4847 3.74025 63.7333 3.87881 63.8664 4.10832C66.4809 8.60329 67.4259 11.2766 67.7635 12.534C67.8841 12.9818 67.5538 13.4244 67.0903 13.4402L59.7679 13.6761ZM69.6104 21.9266H68.0373C67.7572 21.9266 67.5307 21.7001 67.5307 21.4201V19.7327C67.5307 19.4527 67.7572 19.2261 68.0373 19.2261H69.2664C69.3597 19.2261 69.4488 19.2513 69.5243 19.2974C69.6449 19.3676 69.7341 19.4872 69.7635 19.632L69.9187 20.3914L70.1075 21.3184C70.1715 21.633 69.9314 21.9266 69.6104 21.9266Z" fill="#EB1C28"/>
</svg>
