<svg width="318" height="40" viewBox="0 0 318 40" fill="none" xmlns="http://www.w3.org/2000/svg">
<g clip-path="url(#clip0_13_246)">
<path d="M176.699 15.2001C176.699 15.5001 176.499 15.7001 176.199 15.7001H141.799C141.499 15.7001 141.299 15.5001 141.299 15.2001V0.800049C141.299 0.500049 141.099 0.300049 140.799 0.300049H131.199C130.899 0.300049 130.699 0.500049 130.699 0.800049V39.5001C130.699 39.8001 130.899 40.0001 131.199 40.0001H140.799C141.099 40.0001 141.299 39.8001 141.299 39.5001V24.5001C141.299 24.2001 141.499 24.0001 141.799 24.0001H176.199C176.499 24.0001 176.699 24.2001 176.699 24.5001V39.5001C176.699 39.8001 176.899 40.0001 177.199 40.0001H186.799C187.099 40.0001 187.299 39.8001 187.299 39.5001V0.800049C187.299 0.500049 187.099 0.300049 186.799 0.300049H177.199C176.899 0.300049 176.699 0.500049 176.699 0.800049V15.2001Z" fill="white"/>
<path d="M212.9 31.8001V24.3001C212.9 24.0001 213.1 23.8001 213.4 23.8001H234.1C234.4 23.8001 234.6 23.6001 234.6 23.3001V16.3001C234.6 16.0001 234.4 15.8001 234.1 15.8001H213.4C213.1 15.8001 212.9 15.6001 212.9 15.3001V8.60005C212.9 8.30005 213.1 8.10005 213.4 8.10005H244.2C244.5 8.10005 244.7 7.90005 244.7 7.60005V0.800049C244.7 0.500049 244.5 0.300049 244.2 0.300049H212.9H202.8C202.5 0.300049 202.3 0.500049 202.3 0.800049V39.5001C202.3 39.8001 202.5 40.0001 202.8 40.0001H212.9H245.7C246 40.0001 246.2 39.8001 246.2 39.5001V32.8001C246.2 32.5001 246 32.3001 245.7 32.3001H213.4C213.1 32.2001 212.9 32.1001 212.9 31.8001Z" fill="white"/>
<path d="M118.599 0.800049C118.599 0.500049 118.399 0.300049 118.099 0.300049H95.5994H84.8994H62.3994C62.0994 0.300049 61.8994 0.500049 61.8994 0.800049V7.90005C61.8994 8.20005 62.0994 8.40005 62.3994 8.40005H84.3994C84.6994 8.40005 84.8994 8.60005 84.8994 8.90005V39.5001C84.8994 39.8001 85.0994 40.0001 85.3994 40.0001H94.9994C95.2994 40.0001 95.4994 39.8001 95.4994 39.5001V8.90005C95.4994 8.60005 95.6994 8.40005 95.9994 8.40005H117.999C118.299 8.40005 118.499 8.20005 118.499 7.90005V0.800049H118.599Z" fill="white"/>
<path d="M51.3996 40.0001H61.6996C62.0996 40.0001 62.3996 39.5001 62.0996 39.2001L36.6996 0.50005C36.5996 0.40005 36.3996 0.300049 36.2996 0.300049H26.3996C26.1996 0.300049 26.0996 0.40005 25.9996 0.50005L0.199555 39.2001C-0.000445224 39.5001 0.199554 40.0001 0.599554 40.0001H10.6996C10.8996 40.0001 10.9996 39.9001 11.0996 39.8001L15.9996 32.3001C16.0996 32.2001 16.2996 32.1001 16.3996 32.1001H45.5996C45.7996 32.1001 45.8996 32.2001 45.9996 32.3001L50.8996 39.8001C51.0996 39.9001 51.1996 40.0001 51.3996 40.0001ZM22.0996 23.0001L30.6996 9.80005C30.8996 9.50005 31.3996 9.50005 31.5996 9.80005L40.0996 23.0001C40.2996 23.3001 40.0996 23.8001 39.6996 23.8001H22.4996C22.0996 23.8001 21.8996 23.4001 22.0996 23.0001Z" fill="white"/>
<path d="M309.3 25.4999C312.9 22.9999 315.3 18.7999 315.2 13.9999C315.1 6.29995 308.6 0.199951 300.9 0.199951H270.4H260.3C260 0.199951 259.8 0.399951 259.8 0.699951V27.9999V39.4999C259.8 39.7999 260 39.9999 260.3 39.9999H269.9C270.2 39.9999 270.4 39.7999 270.4 39.4999V28.4999C270.4 28.1999 270.6 27.9999 270.9 27.9999H298.8C299 27.9999 299.1 28.0999 299.2 28.1999L307.1 39.7999C307.2 39.8999 307.4 39.9999 307.5 39.9999H317.4C317.8 39.9999 318.1 39.4999 317.8 39.1999L308.9 26.1999C309 25.9999 309 25.6999 309.3 25.4999ZM299.4 19.6999H274.8C271.7 19.6999 269 17.2999 269 14.2999C268.9 11.0999 271.5 8.49995 274.6 8.49995H299.2C302.3 8.49995 305 10.8999 305 13.8999C305.1 17.0999 302.6 19.6999 299.4 19.6999Z" fill="white"/>
</g>
<defs>
<clipPath id="clip0_13_246">
<rect width="318" height="40" fill="white"/>
</clipPath>
</defs>
</svg>
