<svg width="14" height="14" viewBox="0 0 14 14" fill="none" xmlns="http://www.w3.org/2000/svg">
<g clip-path="url(#clip0_8_211)">
<path d="M11.76 8.12L10.7333 6.06666C10.6452 5.9233 10.5216 5.80505 10.3745 5.72331C10.2273 5.64157 10.0616 5.59911 9.89333 5.6H4.10667C3.93836 5.59911 3.77267 5.64157 3.62554 5.72331C3.47842 5.80505 3.35482 5.9233 3.26667 6.06666L2.24 8.12L1.08267 9.1952C1.03552 9.23892 0.997917 9.29192 0.97222 9.35086C0.946522 9.40981 0.933283 9.47343 0.933334 9.53773V13.5333C0.933334 13.6571 0.9825 13.7758 1.07002 13.8633C1.15753 13.9508 1.27623 14 1.4 14H3.26667C3.45333 14 3.73333 13.8133 3.73333 13.6267V13.0667H10.2667V13.5333C10.2667 13.72 10.4533 14 10.64 14H12.6C12.7238 14 12.8425 13.9508 12.93 13.8633C13.0175 13.7758 13.0667 13.6571 13.0667 13.5333V9.53773C13.0667 9.47343 13.0535 9.40981 13.0278 9.35086C13.0021 9.29192 12.9645 9.23892 12.9173 9.1952L11.76 8.12ZM4.2 6.53333H9.8L10.7333 8.4H3.26667L4.2 6.53333ZM4.66667 10.8267C4.66667 11.0133 4.38667 11.2 4.2 11.2H2.24C2.05333 11.2 1.86667 10.92 1.86667 10.7333V9.70666C1.96 9.42666 2.14667 9.24 2.42667 9.33333L4.29333 9.70666C4.48 9.70666 4.66667 9.98666 4.66667 10.1733V10.8267ZM12.1333 10.7333C12.1333 10.92 11.9467 11.2 11.76 11.2H9.8C9.61333 11.2 9.33333 11.0133 9.33333 10.8267V10.1733C9.33333 9.98666 9.52 9.70666 9.70667 9.70666L11.5733 9.33333C11.8533 9.24 12.04 9.42666 12.1333 9.70666V10.7333ZM13.0667 1.86666V2.8C13.0644 3.0496 12.9632 3.28811 12.7852 3.46312C12.6073 3.63813 12.3671 3.73532 12.1175 3.73333H4.99147C4.74139 4.06028 4.41077 4.31676 4.03191 4.47769C3.65305 4.63862 3.23891 4.6985 2.82999 4.65147C2.42106 4.60445 2.03132 4.45213 1.69888 4.2094C1.36644 3.96668 1.10266 3.64185 0.933334 3.26666H3.26667V1.4H0.933334C1.10266 1.02482 1.36644 0.699987 1.69888 0.45726C2.03132 0.214533 2.42106 0.0622127 2.82999 0.0151877C3.23891 -0.0318372 3.65305 0.028042 4.03191 0.188973C4.41077 0.349903 4.74139 0.606379 4.99147 0.933332H12.1175C12.3671 0.931343 12.6073 1.02853 12.7852 1.20354C12.9632 1.37855 13.0644 1.61706 13.0667 1.86666Z" fill="white"/>
</g>
<defs>
<clipPath id="clip0_8_211">
<rect width="14" height="14" fill="white"/>
</clipPath>
</defs>
</svg>
