<svg width="46" height="46" viewBox="0 0 46 46" fill="none" xmlns="http://www.w3.org/2000/svg">
<g clip-path="url(#clip0_15_418)">
<path d="M38.64 26.6798L35.2667 19.9331C34.977 19.4621 34.5709 19.0735 34.0875 18.805C33.6041 18.5364 33.0597 18.3969 32.5067 18.3998H13.4933C12.9404 18.3969 12.3959 18.5364 11.9125 18.805C11.4291 19.0735 11.023 19.4621 10.7333 19.9331L7.36001 26.6798L3.55735 30.2126C3.40244 30.3563 3.27889 30.5304 3.19445 30.7241C3.11001 30.9178 3.06651 31.1268 3.06668 31.3381V44.4665C3.06668 44.8731 3.22823 45.2631 3.51578 45.5507C3.80334 45.8383 4.19335 45.9998 4.60001 45.9998H10.7333C11.3467 45.9998 12.2667 45.3865 12.2667 44.7731V42.9331H33.7333V44.4665C33.7333 45.0798 34.3467 45.9998 34.96 45.9998H41.4C41.8067 45.9998 42.1967 45.8383 42.4842 45.5507C42.7718 45.2631 42.9333 44.8731 42.9333 44.4665V31.3381C42.9335 31.1268 42.89 30.9178 42.8056 30.7241C42.7211 30.5304 42.5976 30.3563 42.4427 30.2126L38.64 26.6798ZM13.8 21.4665H32.2L35.2667 27.5998H10.7333L13.8 21.4665ZM15.3333 35.5731C15.3333 36.1865 14.4133 36.7998 13.8 36.7998H7.36001C6.74668 36.7998 6.13335 35.8798 6.13335 35.2665V31.8931C6.44001 30.9731 7.05335 30.3598 7.97335 30.6665L14.1067 31.8931C14.72 31.8931 15.3333 32.8131 15.3333 33.4265V35.5731ZM39.8667 35.2665C39.8667 35.8798 39.2533 36.7998 38.64 36.7998H32.2C31.5867 36.7998 30.6667 36.1865 30.6667 35.5731V33.4265C30.6667 32.8131 31.28 31.8931 31.8933 31.8931L38.0267 30.6665C38.9467 30.3598 39.56 30.9731 39.8667 31.8931V35.2665ZM42.9333 6.13314V9.19981C42.9261 10.0199 42.5935 10.8036 42.0087 11.3786C41.4239 11.9537 40.6347 12.273 39.8145 12.2665H16.4005C15.5789 13.3407 14.4925 14.1835 13.2477 14.7122C12.0029 15.241 10.6422 15.4377 9.29854 15.2832C7.95491 15.1287 6.67437 14.6282 5.58206 13.8307C4.48975 13.0332 3.62305 11.9659 3.06668 10.7331H10.7333V4.59981H3.06668C3.62305 3.36707 4.48975 2.29977 5.58206 1.50224C6.67437 0.704707 7.95491 0.204227 9.29854 0.0497161C10.6422 -0.104794 12.0029 0.0919515 13.2477 0.620724C14.4925 1.1495 15.5789 1.9922 16.4005 3.06647H39.8145C40.6347 3.05994 41.4239 3.37927 42.0087 3.9543C42.5935 4.52933 42.9261 5.31302 42.9333 6.13314Z" fill="#EB1C28"/>
</g>
<defs>
<clipPath id="clip0_15_418">
<rect width="46" height="46" fill="white"/>
</clipPath>
</defs>
</svg>
