<svg width="240" height="46" viewBox="0 0 240 46" fill="none" xmlns="http://www.w3.org/2000/svg">
<path d="M8.41162 10.12C9.39951 9.82791 10.46 10.0616 11.477 9.98855C13.1622 9.85712 14.8765 9.7549 16.5617 9.88632C16.9395 9.88632 17.0702 10.2514 17.2445 10.5143C17.0702 11.2006 16.6925 11.8285 16.1259 12.2666C16.4746 11.6971 16.7361 11.0838 16.983 10.4851C15.7191 9.88632 14.2809 10.0178 12.9298 10.0616C11.4334 10.1638 9.92252 10.1346 8.41162 10.12Z" fill="#F4EA66"/>
<path d="M7.7724 10.8211C7.85956 10.5145 8.06295 10.164 8.41162 10.1202C9.92252 10.1348 11.4334 10.164 12.9298 10.0618C14.2809 10.018 15.7191 9.88655 16.9831 10.4853C16.7361 11.084 16.4746 11.6973 16.1259 12.2669C14.7167 13.4205 13.3656 14.6472 11.9419 15.8008C10.7215 16.8523 9.29782 17.8891 8.86199 19.5246C8.57143 20.5177 8.67312 21.6129 9.13801 22.5329C9.38499 22.9418 9.71913 23.2923 10.0097 23.6719C10.2857 24.1538 10.5617 24.6504 10.9395 25.0738C11.6513 25.8186 12.247 26.6802 12.9734 27.4104C13.3947 27.8923 13.9031 28.3888 13.9903 29.0605C14.063 29.63 14.0484 30.331 13.54 30.7107C12.9879 31.2364 12.1889 31.1926 11.477 31.1926C10.0823 31.1488 8.68765 31.251 7.29298 31.0904C6.45036 31.0027 5.59322 31.0319 4.75061 31.0027C4.72155 30.4624 4.69249 29.9075 4.73608 29.338C4.76513 28.2865 5.3753 27.3227 5.20097 26.2421C5.18644 25.6726 5.43341 25.1177 5.44794 24.5481C5.46247 23.5843 5.79661 22.6643 5.92736 21.7297C6.23245 19.4078 6.71186 17.1297 7.06053 14.8078C7.39467 13.5081 7.39467 12.1354 7.7724 10.8211Z" fill="#FFF001"/>
<path d="M23.6223 10.7332C23.9709 10.4265 24.3196 9.9738 24.8281 10.0176C26.3826 10.0176 27.937 10.0176 29.4915 10.0176C30.3341 10.0322 31.1913 9.9738 32.0339 10.1198C32.0339 10.3145 32.0339 10.5092 32.0339 10.704C31.8305 10.7186 31.6126 10.7478 31.4528 10.8938C30.8136 11.4049 30.247 11.989 29.6368 12.544C28.9249 13.1719 28.2276 13.829 27.5448 14.4862C26.3099 15.4938 25.1768 16.6328 23.9709 17.6697C23.6223 18.0055 23.1864 18.3122 23.0847 18.8233C23.3317 19.2614 23.7676 19.5243 24.1017 19.8747C25.2203 21.043 26.1647 22.3719 27.2833 23.5401C28.4939 25.0005 29.7191 26.451 30.9588 27.8919C31.4964 28.549 32.0339 29.2208 32.6295 29.8341C33.1525 30.4474 33.8063 31.0608 33.9516 31.9078C34.0533 32.4773 33.8063 33.0468 33.385 33.4119C32.8475 33.923 32.3099 34.4779 31.6707 34.8868C28.7216 35.0182 25.7579 34.9014 22.8087 34.9598C22.5617 34.6532 22.2857 34.3757 22.0097 34.0982C21.5012 33.5725 21.138 32.9446 20.6295 32.4043C19.7579 31.4843 19.1041 30.3598 18.2034 29.4398C17.8547 29.0601 17.5932 28.6074 17.2591 28.2132C16.2131 27.1179 15.3995 25.8036 14.368 24.6938C13.5545 23.5401 12.3632 22.664 11.8547 21.3059C11.8402 20.7509 12.276 20.2544 12.6683 19.8894C13.0751 19.5827 13.5545 19.349 13.9031 18.9547C14.2663 18.5313 14.7458 18.2392 15.2107 17.9179C15.7772 17.5236 16.184 16.9541 16.7216 16.5306C17.0702 16.2386 17.477 16.0049 17.8547 15.7274C18.3196 15.3916 18.6683 14.9243 19.0751 14.5154C19.5109 14.0919 20.0484 13.7998 20.5424 13.464C20.9346 13.2011 21.2252 12.8068 21.5739 12.4855C22.1986 11.843 22.9831 11.3757 23.6223 10.7332Z" fill="#FEF201"/>
<path d="M17.2446 10.5142C17.8111 10.485 18.5085 10.485 18.9007 10.9815C18.9879 11.5218 18.7264 12.0767 18.3487 12.4564C16.2567 14.3402 14.0339 16.0926 11.9564 18.0202C11.5351 18.3999 11.201 18.8818 10.8959 19.3637C10.2712 18.8088 9.50121 19.3053 8.84746 19.5244C9.29782 17.8888 10.7215 16.852 11.9419 15.8005C13.3656 14.6469 14.7167 13.4202 16.1259 12.2666C16.6925 11.8285 17.0702 11.2005 17.2446 10.5142Z" fill="#202021"/>
<path d="M31.4528 10.8939C31.6126 10.7479 31.8305 10.7187 32.0339 10.7041C32.7312 10.6943 33.4286 10.6943 34.1259 10.7041C32.368 12.325 30.5375 13.873 28.8232 15.5377C28.1114 16.1219 27.4576 16.7936 26.7603 17.3923C26.1647 18.0057 25.4528 18.473 24.9007 19.1301C24.8571 19.4368 24.8862 19.8019 25.1768 19.9771C26.368 20.8241 27.0799 22.1384 28.0969 23.146C28.707 23.7739 29.1864 24.5041 29.7676 25.1466C30.0145 25.4679 30.3196 25.7453 30.5085 26.1104C30.7409 26.7384 31.017 27.3663 31.293 27.9942C31.2058 27.965 31.0315 27.9212 30.9588 27.892C29.7191 26.4512 28.4939 25.0006 27.2833 23.5403C26.1647 22.372 25.2203 21.0431 24.1017 19.8749C23.7676 19.5244 23.3317 19.2615 23.0847 18.8234C23.1864 18.3123 23.6223 18.0057 23.9709 17.6698C25.1768 16.633 26.3099 15.4939 27.5448 14.4863C27.8644 14.5301 28.2276 14.5885 28.4746 14.3257C29.0121 13.8584 29.7966 13.3765 29.6368 12.5441C30.247 11.9892 30.8136 11.405 31.4528 10.8939Z" fill="#252519"/>
<path d="M27.4576 14.5592C28.2131 13.8291 28.9685 13.0989 29.7676 12.3979C29.9274 13.3179 29.0702 13.8729 28.4891 14.384C28.2131 14.676 27.8063 14.6176 27.4576 14.5592Z" fill="#242418"/>
<path d="M200.15 13.4202C202.097 13.318 204.044 13.4348 206.005 13.391C205.685 14.4425 205.293 15.4647 204.828 16.4723C204.349 17.6114 203.971 18.7796 203.564 19.9479C202.794 21.7295 202.17 23.5841 201.472 25.3948C201.443 25.4533 201.385 25.5847 201.37 25.6431C203.419 25.7599 205.482 25.6723 207.545 25.7599C205.337 26.0228 203.099 25.7307 200.877 25.8768C200.92 26.6361 201.414 27.2348 201.574 27.9358C200.862 28.0672 200.15 28.1548 199.424 28.2717C198.552 28.4177 197.695 28.1548 196.838 28.0818C196.315 28.0526 195.806 27.9066 195.327 27.6729C195.143 27.8287 194.964 27.9893 194.789 28.1548C194.804 27.9212 194.818 27.7021 194.833 27.4831C195.065 26.3587 195.646 25.3656 196.01 24.285C196.949 21.8609 197.879 19.4368 198.799 17.0126C198.872 16.852 198.944 16.5745 199.177 16.6037C200.542 16.5891 201.908 16.6475 203.274 16.6621C202.315 15.5085 201.094 14.5885 200.15 13.4202Z" fill="#EB1C28"/>
<path fill-rule="evenodd" clip-rule="evenodd" d="M230.063 13.4785C231.646 13.4055 233.201 13.6829 234.77 13.7122C234.61 14.4861 234.203 15.1725 233.898 15.9026C232.954 18.1077 231.966 20.2982 231.167 22.5763C230.935 23.2188 230.673 23.8468 230.47 24.4893C229.845 26.1103 229.366 27.775 228.915 29.4544C227.404 29.469 225.908 29.4252 224.397 29.469L224.252 29.4836C224.242 29.1915 224.237 28.9043 224.237 28.622C223.337 28.7388 222.465 29.1039 221.55 29.1915C220.387 29.3522 219.109 29.4106 218.077 28.7388C217.584 28.4614 217.409 27.9064 217.162 27.4245C217.031 26.3001 217.206 25.1464 217.569 24.0804C217.961 22.8829 218.339 21.6417 219.08 20.6049C219.937 18.9255 221.506 17.728 223.177 16.9249C224.005 16.6766 224.891 16.6036 225.763 16.589C226.765 16.5452 227.709 17.0563 228.363 17.7864C228.567 17.3483 228.77 16.9102 228.915 16.4576C229.235 15.4353 229.7 14.4861 230.063 13.4785ZM225.908 19.2906C225.153 19.9769 224.659 20.8969 224.165 21.7731C223.525 22.8829 223.104 24.1242 222.988 25.4093C222.944 25.8036 223.002 26.1979 223.177 26.5483C223.685 26.8112 224.237 26.5045 224.6 26.1395C225.341 25.2925 226.024 24.3579 226.446 23.2918C226.998 21.9629 227.608 20.488 227.157 19.0277C226.736 18.9985 226.257 18.9693 225.908 19.2906Z" fill="#EB1E25"/>
<path d="M110.048 13.5078C112.184 13.4786 114.32 13.5516 116.455 13.5662C116.455 14.238 116.455 14.9097 116.47 15.5815C116.441 16.6183 116.383 17.6551 116.412 18.7065C116.397 19.0862 116.557 19.4367 116.717 19.7726C116.765 19.5779 116.814 19.388 116.862 19.203C117.109 18.7503 117.443 18.3561 117.806 17.991C118.693 16.9834 119.564 15.9319 120.494 14.9535C120.872 14.5446 121.191 14.0627 121.613 13.6976C121.831 13.5954 122.092 13.6246 122.324 13.6246C124.01 13.6684 125.709 13.6684 127.409 13.7999C127.351 14.5592 126.944 15.231 126.712 15.9465C126.32 17.2608 125.739 18.4729 125.274 19.8164C125.245 19.758 125.293 19.8748 125.274 19.8164C124.722 21.1015 124.184 22.2697 123.719 23.6132C123.022 25.57 122.136 27.4538 121.496 29.4399C119.55 29.4691 117.603 29.3084 115.656 29.25C115.918 27.9503 116.557 26.7821 116.964 25.5116C117.254 24.7084 117.501 23.8907 117.879 23.1167C118.068 22.7078 118.199 22.2697 118.3 21.817C117.995 22.0361 117.719 22.2697 117.472 22.5472C116.295 23.7592 115.09 24.9421 113.869 26.1103C113.695 26.2661 113.516 26.4219 113.332 26.5776C113.172 25.4678 113.259 24.3434 113.157 23.2189C113.099 22.4888 113.07 21.7586 113.07 21.0284C112.024 23.8176 110.847 26.5484 109.801 29.3376C107.942 29.323 106.082 29.3084 104.223 29.1916C104.455 28.111 104.949 27.118 105.312 26.0811C105.966 24.4894 106.576 22.883 107.172 21.2767C107.724 19.9916 108.16 18.6481 108.697 17.3484C108.944 16.7789 109.627 16.9542 110.121 16.9249C111.298 16.9834 112.489 16.8519 113.68 17.0272C112.649 17.363 111.545 16.9103 110.513 17.3046C111.705 17.4215 112.881 17.3338 114.073 17.4507C114.044 16.8519 113.913 16.2094 114.203 15.6545C114.378 15.1872 114.726 14.6615 114.479 14.1649C114.262 13.7415 113.739 13.7415 113.332 13.7415C112.329 13.7561 111.327 13.683 110.354 13.9605C110.247 13.8145 110.145 13.6636 110.048 13.5078Z" fill="#EC1E21"/>
<path d="M110.354 13.9607C111.327 13.6833 112.329 13.7563 113.332 13.7417C113.738 13.7417 114.262 13.7417 114.479 14.1652C114.726 14.6617 114.378 15.1874 114.203 15.6547C113.913 16.2096 114.044 16.8522 114.073 17.4509C112.881 17.3341 111.69 17.4363 110.513 17.3049C111.545 16.9106 112.649 17.3633 113.68 17.0274C112.489 16.8522 111.298 16.9836 110.121 16.9252C109.627 16.9544 108.944 16.7792 108.697 17.3487C108.717 17.1832 108.736 17.0225 108.755 16.8668C110.237 16.8376 111.705 16.9252 113.186 16.8522C112.78 16.3119 112.242 15.903 111.792 15.4065C111.327 14.91 110.847 14.4427 110.354 13.9607Z" fill="#EB1E20"/>
<path d="M145.467 14.749C145.496 14.3693 145.584 14.0042 145.671 13.6392C147.109 13.6684 148.547 13.6392 149.985 13.6976C150.029 14.3985 150.029 15.1141 149.753 15.7566C149.714 15.9027 149.627 15.9951 149.492 16.0341C149.085 15.888 148.722 15.6398 148.3 15.5084C147.487 15.3331 146.63 15.7858 145.831 15.5376C145.627 15.3185 145.554 15.0119 145.467 14.749Z" fill="#F21D19"/>
<path d="M149.985 13.6978C150.208 13.7367 150.426 13.7708 150.639 13.8C150.552 14.9244 150.116 15.9905 150 17.1295C150.683 17.1441 151.366 17.1441 152.063 17.1733C151.816 17.9473 151.554 18.7358 151.293 19.5098C151.191 19.8019 151.119 20.0939 151.031 20.4006C150.16 20.4152 149.274 20.3568 148.402 20.4882H148.286C148.039 21.2914 147.69 22.0508 147.385 22.8247C146.673 24.7232 146.034 26.6216 145.278 28.4908C145.148 28.7974 145.09 29.1771 144.857 29.44C143.245 29.4254 141.632 29.4546 140.019 29.3816C139.845 29.1625 140.063 28.8997 140.107 28.6806C140.673 27.1765 141.429 25.7454 141.893 24.1974C142.387 22.9854 142.809 21.7441 143.332 20.532C142.591 20.313 141.806 20.5028 141.065 20.2838C141.341 19.2324 141.777 18.2247 142.068 17.1879C142.111 17.1441 142.199 17.0711 142.242 17.0419C143.157 17.0127 144.102 17.0419 145.031 17.0419C145.104 16.2679 145.235 15.4939 145.453 14.7492C145.554 15.012 145.627 15.3187 145.831 15.5378C146.63 15.786 147.487 15.3333 148.3 15.5085C148.722 15.64 149.085 15.8882 149.492 16.0343C149.627 15.9953 149.714 15.9028 149.753 15.7568C150.029 15.1143 150.029 14.3987 149.985 13.6978Z" fill="#ED1C25"/>
<path d="M213.283 13.6686C214.983 13.6394 216.697 13.6394 218.397 13.7562C218.063 14.866 217.743 15.9759 217.671 17.1295C218.339 17.1393 219.007 17.1441 219.676 17.1441C219.4 18.2686 218.949 19.3492 218.499 20.4298C217.613 20.4152 216.726 20.386 215.855 20.5029C215.564 21.6127 215.027 22.6349 214.663 23.7302C214.344 24.694 213.937 25.6286 213.603 26.5924C213.327 27.5708 212.775 28.447 212.571 29.44C210.872 29.4254 209.172 29.4254 207.487 29.4108C207.501 29.3378 207.559 29.2063 207.588 29.1479L207.632 29.0457C208.663 29.3524 209.739 29.2063 210.799 29.2502C211.206 29.2356 211.642 29.2794 212.034 29.1333C212.208 28.9873 212.339 28.7975 212.499 28.6076C212.295 28.447 212.107 28.2571 211.889 28.1257C211.264 27.9797 210.581 28.1111 209.985 27.819C209.651 27.7168 209.288 27.3956 208.954 27.6292C208.562 27.8775 208.213 28.1987 207.85 28.4762C208.213 27.527 208.605 26.5778 208.954 25.6286C209.579 23.8908 210.349 22.226 210.93 20.4883C210.189 20.3276 209.419 20.4444 208.678 20.2838C208.954 19.2324 209.419 18.2102 209.608 17.1295C210.596 16.9397 211.613 17.0711 212.615 17.0273C212.76 15.9029 213.094 14.8076 213.283 13.6686Z" fill="#ED1E25"/>
<path d="M43.4092 13.9462C44.1937 13.844 44.9782 13.917 45.7627 13.9024C46.954 13.917 48.1598 13.8878 49.3656 13.9608C49.0315 14.6033 48.8572 15.3189 48.5666 15.976C48.1598 16.75 47.8983 17.6116 47.6513 18.444C47.6223 18.4732 47.5642 18.517 47.5206 18.5462C47.4189 18.2249 47.3463 17.8744 47.1429 17.597C46.954 17.4363 46.7361 17.3487 46.5182 17.2465C45.4867 16.1367 44.4552 15.0414 43.4092 13.9462Z" fill="#F2172B"/>
<path d="M59.7966 14.6909C59.9419 14.3989 60.0581 14.063 60.276 13.8001C61.7579 13.7709 63.2542 13.7709 64.7506 13.8147C64.6634 14.6179 64.155 15.4065 64.0678 16.2097C62.3971 16.2535 60.9298 16.122 59.2591 16.1366C59.2881 15.6109 59.5932 15.1582 59.7966 14.6909Z" fill="#F41C26"/>
<path d="M51.0654 15.5671C51.5884 15.0998 52.0533 14.5741 52.6053 14.1652C53.0266 14.0337 53.477 14.136 53.8983 14.1214C55.3366 14.1068 56.7894 14.1944 58.2421 14.209C57.9952 14.7931 57.3995 15.0706 56.9927 15.5087C55.7724 16.4725 54.6828 17.5823 53.4334 18.5169C52.2276 19.5245 51.0799 20.5906 49.8886 21.6128C50.0775 22.6204 50.4988 23.5696 50.8329 24.5334C51.2252 25.6141 51.4722 26.7531 51.8789 27.8337C52.0533 28.301 52.2276 28.7683 52.3293 29.2648C50.4116 29.2794 48.4794 29.3233 46.5618 29.2356C46.4843 28.7294 46.339 28.2475 46.1259 27.7899C45.6756 26.7677 45.2833 25.7309 44.8329 24.7233C44.3535 25.2636 44.1792 25.9791 43.9032 26.6363C43.6417 27.5417 43.1622 28.3594 42.9298 29.2794C40.8959 29.2794 38.8475 29.3233 36.8136 29.2502C37.293 28.301 37.6852 27.308 38.0775 26.315C39.1816 23.409 40.4455 20.576 41.5932 17.6991C41.6804 17.5093 41.7385 17.2318 42 17.2756C43.4964 17.2318 45.0073 17.3048 46.5182 17.2464C46.7361 17.3487 46.954 17.4363 47.1429 17.5969C47.3463 17.8744 47.4189 18.2248 47.5206 18.5461C47.5642 18.5169 47.6223 18.4731 47.6513 18.4439C48.9007 17.6261 49.9032 16.4871 51.0654 15.5671Z" fill="#EB1D24"/>
<path d="M86.8475 23.9347C87.8063 21.5397 88.6925 19.101 89.2446 16.5601L89.3317 16.6039C90.1162 16.9543 90.9879 16.7499 91.816 16.7791C92.4988 16.7645 93.1671 16.9105 93.8208 17.042C95.4189 17.2464 97.046 16.8959 98.615 17.2756C99.2978 17.5531 99.908 18.108 100.097 18.8528C100.431 20.1962 99.8499 21.5251 99.3414 22.7372C98.7458 23.9347 98.3535 25.2197 97.8015 26.4464C97.4673 27.4978 96.9443 28.4909 96.6102 29.5423C95.5206 29.3232 94.4019 29.4693 93.3123 29.367C93.0121 29.3476 92.707 29.3232 92.3971 29.294C92.7022 27.7023 93.4286 26.2566 93.9225 24.7378C94.3293 23.4235 94.8814 22.1531 95.2591 20.8388C95.3172 20.3861 95.2736 19.7143 94.7797 19.5245C94.0823 19.3347 93.3705 19.6997 92.8329 20.1378C92.3535 20.868 92.1501 21.7442 91.845 22.5474C91.3947 23.7448 90.8571 24.8839 90.4504 26.0959C90.0726 27.2204 89.5351 28.2864 89.23 29.4401C87.7772 29.4547 86.3245 29.3962 84.8717 29.3816C85.2494 27.4832 86.2373 25.7747 86.8475 23.9347Z" fill="#EB1E24"/>
<path d="M178.257 18.1224C179.303 17.3777 180.436 16.6913 181.714 16.5015C181.729 16.8665 181.772 17.2462 181.714 17.6113C181.569 18.0056 181.162 18.2246 180.77 18.3123C179.927 18.5021 179.085 18.2977 178.257 18.1224Z" fill="#EC1F24"/>
<path d="M203.564 19.9477C203.971 18.7795 204.349 17.6112 204.828 16.4722C204.639 17.2461 204.567 18.0493 204.567 18.8525C204.596 19.4366 204 19.7287 203.564 19.9477Z" fill="#F3EFE6"/>
<path d="M89.3317 16.6036C90.0145 16.516 90.6973 16.5598 91.3801 16.5598C92.1792 16.5744 92.9927 16.5306 93.7918 16.6182C93.8063 16.7204 93.8208 16.9249 93.8208 17.0417C93.1671 16.9103 92.4988 16.7642 91.816 16.7788C90.9879 16.7496 90.1162 16.9541 89.3317 16.6036Z" fill="#CD4036"/>
<path fill-rule="evenodd" clip-rule="evenodd" d="M133.002 16.7352C134.731 16.5453 136.605 16.8666 137.985 18.0056C139.308 18.9402 139.874 20.6342 139.772 22.2113C139.642 23.6279 138.93 24.9275 138.058 26.0374C137.68 26.4463 137.245 26.7821 136.867 27.1764C136.329 27.7021 135.632 27.9942 134.993 28.3593C133.148 29.3669 130.969 29.7028 128.92 29.2939C127.932 28.9726 126.857 28.6513 126.16 27.8336C125.332 27.118 124.765 26.0812 124.722 24.9713C124.547 22.8247 125.608 20.7218 127.22 19.3637C128.804 17.9326 130.852 16.9104 133.002 16.7352ZM132.872 19.6704C132.116 20.0501 131.622 20.751 131.157 21.4228C130.373 22.6202 129.719 24.0659 130.024 25.5409C130.024 25.8913 130.46 25.979 130.751 25.9205C131.375 25.7891 131.782 25.2634 132.203 24.8253C133.031 23.8031 133.671 22.6056 133.932 21.3059C134.019 20.7802 134.136 20.1815 133.772 19.7434C133.642 19.3345 133.133 19.5244 132.872 19.6704Z" fill="#EC1D20"/>
<path fill-rule="evenodd" clip-rule="evenodd" d="M157.148 16.9542C158.833 16.6037 160.678 16.5161 162.291 17.2317C163.235 17.5967 164.019 18.2831 164.644 19.0717C165.298 20.2253 165.559 21.6418 165.196 22.9415C164.978 23.6571 164.746 24.3872 164.266 24.9859C163.642 26.2564 162.523 27.2348 161.303 27.9504C158.702 29.6736 155.056 30.0824 152.339 28.3885C151.525 27.7459 150.843 26.9428 150.465 25.9644C150.334 25.1758 150.189 24.358 150.363 23.5548C150.523 22.9123 150.755 22.299 150.988 21.6856C151.235 21.0723 151.685 20.605 152.092 20.0939C153.385 18.5459 155.23 17.5529 157.148 16.9542ZM156.596 21.598C155.913 22.7663 155.303 24.1536 155.593 25.5409C155.608 25.9351 156.087 26.0228 156.392 25.9205C157.453 25.6431 157.961 24.5478 158.586 23.7301C159.138 22.6348 159.748 21.4374 159.559 20.1669C159.443 19.904 159.269 19.6704 159.124 19.4367C157.947 19.6266 157.22 20.678 156.596 21.598Z" fill="#ED1C22"/>
<path d="M181.525 16.5161C183.051 16.5453 184.576 16.5015 186.102 16.5453C187.337 16.5453 188.455 17.2317 189.399 17.9764C189.922 18.7942 190.271 19.7142 190.3 20.678C188.586 20.6634 186.872 20.7072 185.157 20.6634C184.765 20.0647 184.286 19.3199 183.487 19.3345C183.007 19.2323 182.659 19.7142 182.702 20.1523C182.717 20.6926 182.92 21.4228 183.559 21.5104C184.547 21.7441 185.521 22.0215 186.508 22.2552C187.54 22.4742 188.252 23.4088 188.644 24.3434C188.906 24.8691 188.847 25.4825 188.717 26.0374C188.426 26.9574 187.627 27.5853 186.843 28.0672C185.477 28.8558 183.908 29.3377 182.324 29.4545C180.872 29.4837 179.419 29.4545 177.966 29.4545C177.312 29.4545 176.673 29.3231 176.077 29.0894C175.569 28.7682 175.002 28.4907 174.726 27.9358C174.189 27.1764 174.044 26.2272 174.087 25.3072C175.918 25.2488 177.753 25.2099 179.593 25.1904C179.797 25.9352 180.392 26.6361 181.148 26.7967C181.729 26.7237 182.281 26.4463 182.746 26.1104C182.978 25.6139 183.109 24.9275 182.557 24.5917C181.642 24.0075 180.479 24.0221 179.419 23.9053C178.373 23.9345 177.429 23.2774 176.804 22.4888C176.47 21.9339 176.179 21.2621 176.412 20.605C176.528 19.3929 177.53 18.5752 178.431 17.9034H178.504C179.23 18.0494 179.971 18.2247 180.697 18.064C181.031 17.991 181.395 17.8012 181.525 17.4653C181.569 17.144 181.525 16.8228 181.525 16.5161Z" fill="#ED1F25"/>
<path d="M64.9395 16.9396C65.0266 16.7059 65.3172 16.7643 65.5061 16.7497C68.339 16.7497 71.1574 16.7351 73.9758 16.8374C73.7433 17.772 73.1913 18.6043 73.0896 19.5828C73.0508 19.3783 73.0169 19.1787 72.9879 18.984C72.9879 19.1155 73.0024 19.3929 73.0024 19.5243C71.8257 19.5682 70.6344 19.4367 69.4576 19.4805C69.0363 19.4513 68.7458 19.7872 68.5569 20.1231C67.4092 23.2482 66.3051 26.4024 65.2155 29.5567C64.8378 29.4837 64.4455 29.4545 64.0678 29.4545C62.7748 29.4691 61.4818 29.4691 60.1889 29.4399C60.7845 28.1256 61.1186 26.6945 61.6998 25.3656C62.2518 23.9783 62.8184 22.5764 63.2978 21.1599C63.5303 20.4297 63.8208 19.7288 64.1259 19.0278C64.4165 18.3415 64.5617 17.5967 64.9395 16.9396Z" fill="#EE1D23"/>
<path d="M168.087 16.8521C168.843 16.6914 169.642 16.7645 170.412 16.7499C172.693 16.7352 174.973 16.7791 177.254 16.8229C176.92 17.6845 176.659 18.5752 176.208 19.3784C175.85 19.3492 175.496 19.3346 175.148 19.3346C175.249 19.1594 175.366 18.9987 175.467 18.8235C175.002 17.8889 173.855 17.5822 172.881 17.6699C172.286 17.7283 171.748 18.0349 171.24 18.2978C170.804 17.8597 170.673 17.0127 169.976 16.9543C169.366 16.8521 168.741 16.9397 168.174 17.1733L168.145 17.0857C168.131 17.0273 168.102 16.9105 168.087 16.8521Z" fill="#E81C28"/>
<path fill-rule="evenodd" clip-rule="evenodd" d="M74.1792 20.503C75.4722 18.5607 77.5787 17.1296 79.9032 16.8376C80.6731 16.7792 81.4431 16.823 82.2276 16.8084C83.6659 16.7792 85.1768 17.4947 85.9177 18.7652C86.1065 19.2033 86.1356 19.6852 86.1937 20.1525C86.2954 21.1455 85.7724 22.0363 85.5109 22.9709C84.8571 25.0884 83.9709 27.1328 83.4334 29.2795C83.0266 29.2941 82.6199 29.2795 82.2276 29.3233C81.0944 29.4985 79.9613 29.3817 78.8281 29.4693C78.7797 29.2843 78.7312 29.1042 78.6828 28.929C76.9249 28.9874 75.1525 29.0458 73.3947 29.002C72.6973 28.783 72.0872 28.3011 71.6368 27.7315C71.1429 27.1912 70.9831 26.3442 71.2881 25.6725C71.5061 25.1322 71.7094 24.5773 72.1453 24.183C72.6973 23.7157 73.2058 23.19 73.8305 22.8395C75.0218 22.0363 76.4891 22.3576 77.8402 22.1677C78.7554 22.0509 79.6998 22.0363 80.6295 21.9633C81.1961 21.9633 81.5739 21.4522 81.7772 20.9557C81.8935 20.6052 82.0242 20.1233 81.6465 19.875C81.2833 19.4369 80.6441 19.51 80.1501 19.6706C79.5109 19.9334 79.1768 20.6052 78.5811 20.9557C77.0266 20.9849 75.4722 20.9995 73.9322 20.9265C74.0097 20.7804 74.092 20.6393 74.1792 20.503ZM77.201 24.8839C76.6634 25.395 76.707 26.1544 76.7651 26.8261C77.3317 27.1036 77.9855 27.1766 78.6102 27.0598C79.1041 26.9284 79.4818 26.5633 79.8741 26.2566C80.3245 25.9061 80.4988 25.322 80.6586 24.7963C80.7167 24.402 80.6005 23.8325 80.1356 23.7595C79.0315 23.482 77.971 24.1538 77.201 24.8839Z" fill="#ED1F20"/>
<path d="M168.087 17.0855C168.668 16.8373 169.308 16.7643 169.932 16.8665C170.644 16.9249 170.789 17.8011 171.225 18.2538C171.763 17.9763 172.315 17.6551 172.925 17.6113C173.927 17.509 175.104 17.8303 175.584 18.7941C175.482 18.984 175.366 19.1446 175.249 19.3198C175.608 19.3198 175.855 19.3393 176.223 19.3782L176.15 19.4513C174.828 19.7579 173.811 19.3198 172.489 19.5243C172.402 19.5681 172.242 19.6557 172.17 19.7141C171.545 20.3421 171.4 21.2767 171.08 22.0798C170.915 22.0604 170.751 22.036 170.586 22.0068C170.368 21.5541 170.208 21.0722 169.86 20.6925C169.409 20.2982 168.755 20.2544 168.32 19.8455C167.971 19.3636 168.247 18.7357 168.291 18.1954C168.392 17.8157 168.203 17.4506 168.087 17.0855Z" fill="#EB1F24"/>
<path d="M166.939 20.1667C167.346 19.1445 167.68 18.0785 168.145 17.0854L168.174 17.1731C168.291 17.5089 168.479 17.874 168.378 18.2391C168.334 18.7648 168.058 19.3635 168.407 19.8308C168.828 20.2397 169.467 20.2835 169.918 20.6632C170.237 21.0283 170.397 21.4956 170.6 21.9337C170.765 21.9532 170.93 21.9775 171.094 22.0067C170.63 23.467 170.034 24.8835 169.569 26.3585C169.249 27.3953 168.799 28.4029 168.494 29.4543C167.346 29.4543 166.184 29.4543 165.036 29.4543C164.513 29.4689 163.976 29.4835 163.467 29.3521C163.976 28.1401 164.383 26.8696 164.847 25.6429C165.603 23.8321 166.286 22.0067 166.939 20.1667Z" fill="#EB1F25"/>
<path d="M8.86199 19.3785C9.50121 19.1595 10.2712 18.6776 10.8959 19.2179C10.3438 20.3715 10.2712 21.788 10.8523 22.9563C11.1138 23.6134 11.6804 24.0807 12.1162 24.6211C12.9153 25.4826 13.6707 26.3734 14.4262 27.2642C15.0944 28.0528 15.937 28.8414 16.0097 29.9366C16.0969 30.696 15.4722 31.2655 14.9346 31.689C14.1356 32.0833 13.2058 31.7912 12.3487 31.835C12.4358 31.689 12.523 31.5478 12.6102 31.4115C11.3172 31.3385 10.0097 31.3677 8.70218 31.3677C8.30993 31.3531 7.94673 31.4991 7.59806 31.6598C7.11865 31.8058 6.61017 31.6598 6.13075 31.616C6.15981 31.4991 6.20339 31.2509 6.23245 31.1195C8.35351 31.0172 10.4891 31.2363 12.6247 31.2217C13.4964 31.0318 14.2082 30.2579 14.2809 29.3525C14.1792 28.3449 13.5109 27.5125 12.8717 26.7823C11.8838 25.7309 11.0121 24.5626 10.0097 23.5258C9.71913 23.1461 9.38499 22.7957 9.13802 22.3868C8.67313 21.4668 8.57143 20.3715 8.86199 19.3785Z" fill="#212122"/>
<path d="M57.0363 21.3935C57.632 20.0354 58.0823 18.6189 58.6925 17.2754C60.3051 17.2316 61.9032 17.3338 63.5012 17.4653C62.8765 19.0278 62.3971 20.6342 61.7288 22.1821C61.4964 22.7224 61.3802 23.2919 61.1768 23.8469C60.3632 25.6723 59.8257 27.5999 59.0702 29.4545C57.3559 29.4545 55.6271 29.4691 53.9128 29.4399C54.0726 28.7097 54.3777 28.0234 54.6683 27.337C55.5254 25.3802 56.1937 23.3503 57.0363 21.3935Z" fill="#ED1D25"/>
<path d="M10.0097 23.6719C11.0121 24.7087 11.8838 25.877 12.8717 26.9284C13.5109 27.6585 14.1792 28.4909 14.2809 29.4985C14.2082 30.4039 13.4964 31.1779 12.6247 31.3677C10.4891 31.3824 8.35351 31.1633 6.21791 31.2655C5.6368 31.3385 5.04116 31.397 4.46005 31.2947C4.34382 30.3017 4.51816 29.3087 4.66343 28.3449C4.82324 27.6439 4.80871 26.87 5.20097 26.242C5.3753 27.3227 4.76513 28.2865 4.73607 29.3379C4.69249 29.9074 4.72155 30.4624 4.7506 31.0027C5.59322 31.0319 6.45036 30.9208 7.29297 31.0084C8.68765 31.169 10.0823 31.0668 11.477 31.1106C12.1889 31.1106 12.9879 31.2363 13.5399 30.7106C14.0484 30.3309 14.063 29.63 13.9903 29.0604C13.9031 28.3887 13.3947 27.8922 12.9734 27.4103C12.247 26.6801 11.6513 25.8185 10.9395 25.0738C10.5617 24.6503 10.2857 24.1538 10.0097 23.6719Z" fill="#FFF001"/>
<path d="M30.5085 26.1104C31.1622 26.5192 31.5254 27.2494 32.0484 27.8043C32.6876 28.6221 33.5012 29.3084 34.0387 30.2138C33.7046 29.9656 33.3559 29.7611 33.0073 29.5421C32.8813 29.6395 32.7554 29.7368 32.6295 29.8342C32.0339 29.2208 31.4964 28.5491 30.9588 27.8919C31.0315 27.9211 31.2058 27.965 31.293 27.9796C31.0169 27.3662 30.7409 26.7383 30.5085 26.1104Z" fill="#2A2638"/>
<path d="M207.545 25.7598H207.719C207.458 27.001 207.007 28.2131 206.717 29.4544C202.591 29.4544 198.479 29.4398 194.353 29.4544C194.281 29.4544 194.15 29.4544 194.077 29.4544C194.179 28.7534 194.47 28.0817 194.833 27.4683C194.818 27.702 194.804 27.921 194.789 28.1547C194.964 27.9892 195.143 27.8285 195.327 27.6728C195.806 27.9064 196.315 28.0525 196.838 28.0817C197.695 28.1547 198.552 28.4175 199.424 28.2715C200.15 28.1547 200.862 28.0671 201.588 27.9356C201.414 27.2347 200.92 26.636 200.876 25.8766C203.099 25.7306 205.337 26.0226 207.545 25.7598Z" fill="#EB1C28"/>
<path d="M231.196 25.9059C232.634 25.8913 234.073 25.8767 235.496 25.8913C235.438 26.3586 235.322 26.7967 235.162 27.2348C234.915 27.9504 234.785 28.7097 234.596 29.4545C233.128 29.4545 231.647 29.4691 230.179 29.4545C230.426 28.5053 230.702 27.5707 230.978 26.6361C231.046 26.3927 231.119 26.1493 231.196 25.9059Z" fill="#F51D1E"/>
<path d="M208.954 27.6292C209.288 27.3956 209.651 27.7168 209.985 27.8191C210.581 28.1111 211.264 27.9797 211.889 28.1257C212.107 28.2572 212.295 28.447 212.499 28.6076C212.339 28.7975 212.208 28.9873 212.034 29.1334C211.642 29.2794 211.206 29.2356 210.799 29.2502C209.739 29.2064 208.663 29.3524 207.632 29.0457C207.7 28.8608 207.772 28.6709 207.85 28.4762C208.213 28.1987 208.562 27.8775 208.954 27.6292Z" fill="#EC1E24"/>
<path d="M32.6295 29.8341C32.7554 29.7367 32.8814 29.6393 33.0073 29.542C33.3559 29.761 33.7046 29.9655 34.0387 30.2137C34.7506 30.9731 35.5932 31.7763 35.7385 32.8569C35.6368 33.7769 34.8087 34.3464 34.184 34.9452C33.8354 35.2372 33.5012 35.6753 32.9927 35.6607C30.1453 35.6315 27.2978 35.6753 24.4504 35.6461C24.3051 35.4271 24.1453 35.2226 24 35.0036C26.368 34.989 28.7361 35.0036 31.1041 35.0036C31.293 34.989 31.5109 35.0182 31.6707 34.8868C32.2954 34.4779 32.8475 33.9229 33.385 33.4118C33.8063 33.0468 34.0533 32.4772 33.9516 31.9077C33.8063 31.0607 33.1525 30.4474 32.6295 29.8341Z" fill="#2A2121"/>
<path d="M7.11865 31.6596C7.53996 31.499 7.97579 31.353 8.44069 31.3676C9.98064 31.3676 11.5351 31.3384 13.0751 31.4114C12.9685 31.5477 12.862 31.6889 12.7555 31.8349C10.8814 31.7619 8.99274 31.8057 7.11865 31.6596Z" fill="#202021"/>
<path d="M44.456 39V33.4H47.288C47.8 33.4 48.2507 33.4747 48.64 33.624C49.0347 33.7733 49.3653 33.9787 49.632 34.24C49.8987 34.496 50.0987 34.792 50.232 35.128C50.3653 35.464 50.432 35.8213 50.432 36.2C50.432 36.584 50.3653 36.9467 50.232 37.288C50.0987 37.624 49.8987 37.92 49.632 38.176C49.3653 38.432 49.0347 38.6347 48.64 38.784C48.2507 38.928 47.8 39 47.288 39H44.456ZM45.32 38.256L45.296 38.168H47.248C47.648 38.168 47.9893 38.1173 48.272 38.016C48.56 37.9147 48.7947 37.7733 48.976 37.592C49.1573 37.4107 49.2907 37.2027 49.376 36.968C49.4667 36.728 49.512 36.472 49.512 36.2C49.512 35.9333 49.4667 35.6827 49.376 35.448C49.2907 35.2133 49.1573 35.0053 48.976 34.824C48.7947 34.6373 48.56 34.4933 48.272 34.392C47.9893 34.2853 47.648 34.232 47.248 34.232H45.272L45.32 34.16V38.256ZM53.2131 39V34.8H54.0451V36.328L53.8051 36.28C53.8905 35.992 54.0318 35.7307 54.2291 35.496C54.4265 35.256 54.6558 35.0667 54.9171 34.928C55.1785 34.784 55.4478 34.712 55.7251 34.712C55.9225 34.712 56.1145 34.7333 56.3011 34.776C56.4878 34.8187 56.6345 34.8773 56.7411 34.952L56.5251 35.8C56.4078 35.7307 56.2611 35.6773 56.0851 35.64C55.9145 35.5973 55.7545 35.576 55.6051 35.576C55.3651 35.576 55.1491 35.616 54.9571 35.696C54.7651 35.776 54.5998 35.8827 54.4611 36.016C54.3278 36.144 54.2238 36.288 54.1491 36.448C54.0798 36.6027 54.0451 36.76 54.0451 36.92V39H53.2131ZM59.4551 39V34.8H60.2791V39H59.4551ZM59.8551 33.792C59.6791 33.792 59.5431 33.7467 59.4471 33.656C59.3511 33.5653 59.3031 33.4373 59.3031 33.272C59.3031 33.1173 59.3511 32.992 59.4471 32.896C59.5485 32.8 59.6845 32.752 59.8551 32.752C60.0311 32.752 60.1671 32.7973 60.2631 32.888C60.3591 32.9787 60.4071 33.1067 60.4071 33.272C60.4071 33.4267 60.3565 33.552 60.2551 33.648C60.1591 33.744 60.0258 33.792 59.8551 33.792ZM65.0718 39L62.6878 34.8H63.6558L65.5758 38.36L65.3438 38.432L67.3518 34.8H68.2798L65.8238 39H65.0718ZM72.6598 39.08C72.1051 39.08 71.6118 38.9893 71.1798 38.808C70.7478 38.6213 70.4091 38.368 70.1638 38.048C69.9238 37.7227 69.8038 37.3547 69.8038 36.944C69.8038 36.592 69.8758 36.28 70.0197 36.008C70.1691 35.7307 70.3718 35.496 70.6278 35.304C70.8891 35.112 71.1878 34.9653 71.5238 34.864C71.8598 34.7573 72.2144 34.704 72.5878 34.704C72.9398 34.704 73.2704 34.7547 73.5798 34.856C73.8891 34.952 74.1611 35.0907 74.3958 35.272C74.6304 35.4533 74.8118 35.6693 74.9398 35.92C75.0731 36.1653 75.1371 36.44 75.1318 36.744L75.1238 37.176H70.5718L70.3878 36.52H74.4118L74.2918 36.576V36.384C74.2651 36.2027 74.1664 36.0427 73.9958 35.904C73.8304 35.7653 73.6224 35.6587 73.3718 35.584C73.1264 35.504 72.8651 35.464 72.5878 35.464C72.2251 35.464 71.8944 35.5093 71.5958 35.6C71.2971 35.6907 71.0598 35.84 70.8838 36.048C70.7078 36.256 70.6198 36.536 70.6198 36.888C70.6198 37.176 70.7131 37.4267 70.8997 37.64C71.0864 37.8533 71.3451 38.0187 71.6758 38.136C72.0064 38.2533 72.3878 38.312 72.8198 38.312C73.2518 38.312 73.6091 38.256 73.8918 38.144C74.1744 38.032 74.4038 37.9253 74.5798 37.824L74.9398 38.448C74.7798 38.5547 74.5771 38.6587 74.3318 38.76C74.0918 38.856 73.8278 38.9333 73.5398 38.992C73.2518 39.0507 72.9584 39.08 72.6598 39.08ZM83.0999 39V34.232H80.9719V33.4H86.1399V34.232H83.9639V39H83.0999ZM88.2209 39V34.8H89.0529V36.328L88.8129 36.28C88.8983 35.992 89.0396 35.7307 89.2369 35.496C89.4343 35.256 89.6636 35.0667 89.9249 34.928C90.1863 34.784 90.4556 34.712 90.7329 34.712C90.9303 34.712 91.1223 34.7333 91.3089 34.776C91.4956 34.8187 91.6423 34.8773 91.7489 34.952L91.5329 35.8C91.4156 35.7307 91.2689 35.6773 91.0929 35.64C90.9223 35.5973 90.7623 35.576 90.6129 35.576C90.3729 35.576 90.1569 35.616 89.9649 35.696C89.7729 35.776 89.6076 35.8827 89.4689 36.016C89.3356 36.144 89.2316 36.288 89.1569 36.448C89.0876 36.6027 89.0529 36.76 89.0529 36.92V39H88.2209ZM96.1829 39.08C95.8149 39.08 95.4896 38.9947 95.2069 38.824C94.9243 38.648 94.7029 38.3973 94.5429 38.072C94.3883 37.7467 94.3109 37.36 94.3109 36.912V34.8H95.1349V36.608C95.1349 36.9707 95.1829 37.2747 95.2789 37.52C95.3749 37.7653 95.5243 37.9493 95.7269 38.072C95.9349 38.1947 96.1989 38.256 96.5189 38.256C96.7376 38.256 96.9429 38.224 97.1349 38.16C97.3323 38.0907 97.5056 37.992 97.6549 37.864C97.8043 37.7307 97.9216 37.5733 98.0069 37.392C98.0923 37.2053 98.1349 36.9973 98.1349 36.768V34.8H98.9589V39H98.1349V38.12L98.2789 38.024C98.2096 38.184 98.0816 38.3467 97.8949 38.512C97.7083 38.672 97.4709 38.808 97.1829 38.92C96.8949 39.0267 96.5616 39.08 96.1829 39.08ZM103.907 39.08C103.416 39.08 102.965 39.0187 102.555 38.896C102.144 38.7733 101.8 38.5653 101.523 38.272L102.083 37.752C102.296 37.9493 102.549 38.1067 102.843 38.224C103.136 38.336 103.459 38.392 103.811 38.392C103.949 38.392 104.093 38.3867 104.243 38.376C104.397 38.36 104.544 38.3333 104.683 38.296C104.821 38.2587 104.933 38.2053 105.019 38.136C105.104 38.0667 105.147 37.976 105.147 37.864C105.147 37.6827 104.995 37.552 104.691 37.472C104.536 37.4293 104.371 37.392 104.195 37.36C104.019 37.3227 103.832 37.2907 103.635 37.264C103.309 37.2053 103.008 37.144 102.731 37.08C102.459 37.0107 102.229 36.912 102.043 36.784C101.909 36.688 101.805 36.5707 101.731 36.432C101.656 36.2933 101.618 36.1253 101.618 35.928C101.618 35.7413 101.672 35.5733 101.779 35.424C101.891 35.2747 102.043 35.1467 102.235 35.04C102.427 34.9333 102.651 34.8533 102.907 34.8C103.168 34.7413 103.451 34.712 103.755 34.712C104 34.712 104.259 34.736 104.531 34.784C104.808 34.8267 105.072 34.8987 105.323 35C105.573 35.096 105.784 35.224 105.955 35.384L105.523 35.952C105.373 35.8453 105.197 35.7493 104.995 35.664C104.792 35.5787 104.584 35.512 104.371 35.464C104.157 35.416 103.952 35.392 103.755 35.392C103.621 35.392 103.477 35.4 103.323 35.416C103.173 35.4267 103.032 35.4507 102.899 35.488C102.765 35.5253 102.656 35.5787 102.571 35.648C102.485 35.712 102.443 35.7947 102.443 35.896C102.443 35.96 102.461 36.0187 102.499 36.072C102.541 36.12 102.597 36.1653 102.667 36.208C102.8 36.288 102.973 36.3547 103.187 36.408C103.405 36.456 103.643 36.5013 103.899 36.544C104.192 36.5867 104.48 36.6427 104.763 36.712C105.045 36.776 105.288 36.8667 105.491 36.984C105.64 37.0693 105.757 37.1707 105.843 37.288C105.933 37.4053 105.979 37.5467 105.979 37.712C105.979 38.0107 105.885 38.2613 105.699 38.464C105.512 38.6667 105.261 38.8213 104.947 38.928C104.637 39.0293 104.291 39.08 103.907 39.08ZM109.289 39V33.488H110.114V39H109.289ZM107.938 35.6V34.8H111.73V35.6H107.938ZM114.157 40.624L113.773 40.184C114.029 40.0347 114.237 39.888 114.397 39.744C114.563 39.6053 114.645 39.4773 114.645 39.36C114.645 39.264 114.611 39.1867 114.541 39.128C114.472 39.0693 114.392 39.0133 114.301 38.96C114.189 38.896 114.08 38.824 113.973 38.744C113.872 38.664 113.821 38.5493 113.821 38.4C113.821 38.2027 113.891 38.0587 114.029 37.968C114.173 37.872 114.344 37.824 114.541 37.824C114.723 37.824 114.896 37.8747 115.061 37.976C115.227 38.0773 115.36 38.2133 115.461 38.384C115.568 38.5547 115.621 38.7467 115.621 38.96C115.621 39.12 115.579 39.28 115.493 39.44C115.408 39.6053 115.293 39.7627 115.149 39.912C115.011 40.0667 114.853 40.2027 114.677 40.32C114.507 40.4427 114.333 40.544 114.157 40.624ZM122.159 39V33.4H125.431C125.762 33.4 126.063 33.4773 126.335 33.632C126.612 33.7813 126.834 33.9867 126.999 34.248C127.164 34.5093 127.247 34.8 127.247 35.12C127.247 35.456 127.156 35.7627 126.975 36.04C126.794 36.312 126.554 36.5307 126.255 36.696C125.956 36.856 125.628 36.936 125.271 36.936H123.023V39H122.159ZM126.495 39L124.591 36.472L125.511 36.272L127.575 39.008L126.495 39ZM123.023 36.104H125.191C125.394 36.104 125.58 36.0587 125.751 35.968C125.927 35.8773 126.066 35.7573 126.167 35.608C126.274 35.4587 126.327 35.296 126.327 35.12C126.327 34.9547 126.274 34.8053 126.167 34.672C126.066 34.5387 125.927 34.432 125.751 34.352C125.58 34.272 125.394 34.232 125.191 34.232H123.023V36.104ZM130.541 39V34.8H131.365V39H130.541ZM130.941 33.792C130.765 33.792 130.629 33.7467 130.533 33.656C130.437 33.5653 130.389 33.4373 130.389 33.272C130.389 33.1173 130.437 32.992 130.533 32.896C130.634 32.8 130.77 32.752 130.941 32.752C131.117 32.752 131.253 32.7973 131.349 32.888C131.445 32.9787 131.493 33.1067 131.493 33.272C131.493 33.4267 131.442 33.552 131.341 33.648C131.245 33.744 131.112 33.792 130.941 33.792ZM136.55 39.08C136.043 39.08 135.6 38.9867 135.222 38.8C134.848 38.6133 134.56 38.3547 134.358 38.024C134.155 37.6933 134.054 37.3173 134.054 36.896C134.054 36.4693 134.16 36.0933 134.374 35.768C134.592 35.4373 134.894 35.1787 135.278 34.992C135.662 34.8053 136.102 34.712 136.598 34.712C136.907 34.712 137.195 34.7493 137.462 34.824C137.728 34.8933 137.96 34.9867 138.158 35.104C138.355 35.2213 138.507 35.3467 138.614 35.48C138.726 35.6133 138.782 35.744 138.782 35.872L138.542 35.888V33.08H139.366V39H138.542V37.84L138.702 37.904C138.702 38.0267 138.643 38.1573 138.526 38.296C138.408 38.4293 138.248 38.5573 138.046 38.68C137.848 38.7973 137.619 38.8933 137.358 38.968C137.102 39.0427 136.832 39.08 136.55 39.08ZM136.734 38.32C137.096 38.32 137.416 38.2587 137.694 38.136C137.971 38.008 138.187 37.8373 138.342 37.624C138.496 37.4053 138.574 37.1627 138.574 36.896C138.574 36.6293 138.496 36.3893 138.342 36.176C138.187 35.9627 137.971 35.7947 137.694 35.672C137.416 35.544 137.096 35.48 136.734 35.48C136.376 35.48 136.059 35.544 135.782 35.672C135.504 35.7947 135.286 35.9627 135.126 36.176C134.971 36.3893 134.894 36.6293 134.894 36.896C134.894 37.1627 134.971 37.4053 135.126 37.624C135.286 37.8373 135.504 38.008 135.782 38.136C136.059 38.2587 136.376 38.32 136.734 38.32ZM144.621 39.08C144.066 39.08 143.573 38.9893 143.141 38.808C142.709 38.6213 142.37 38.368 142.125 38.048C141.885 37.7227 141.765 37.3547 141.765 36.944C141.765 36.592 141.837 36.28 141.981 36.008C142.13 35.7307 142.333 35.496 142.589 35.304C142.85 35.112 143.149 34.9653 143.485 34.864C143.821 34.7573 144.175 34.704 144.549 34.704C144.901 34.704 145.231 34.7547 145.541 34.856C145.85 34.952 146.122 35.0907 146.357 35.272C146.591 35.4533 146.773 35.6693 146.901 35.92C147.034 36.1653 147.098 36.44 147.093 36.744L147.085 37.176H142.533L142.349 36.52H146.373L146.253 36.576V36.384C146.226 36.2027 146.127 36.0427 145.957 35.904C145.791 35.7653 145.583 35.6587 145.333 35.584C145.087 35.504 144.826 35.464 144.549 35.464C144.186 35.464 143.855 35.5093 143.557 35.6C143.258 35.6907 143.021 35.84 142.845 36.048C142.669 36.256 142.581 36.536 142.581 36.888C142.581 37.176 142.674 37.4267 142.861 37.64C143.047 37.8533 143.306 38.0187 143.637 38.136C143.967 38.2533 144.349 38.312 144.781 38.312C145.213 38.312 145.57 38.256 145.853 38.144C146.135 38.032 146.365 37.9253 146.541 37.824L146.901 38.448C146.741 38.5547 146.538 38.6587 146.293 38.76C146.053 38.856 145.789 38.9333 145.501 38.992C145.213 39.0507 144.919 39.08 144.621 39.08ZM153.589 39V33.4H158.237V34.232H154.453V38.168H158.237V39H153.589ZM154.061 36.544V35.712H157.797V36.544H154.061ZM165.044 39L163.18 37.136L163.02 36.968L160.876 34.8H162.116L163.724 36.584L163.868 36.728L166.252 39H165.044ZM160.724 39L162.86 36.76L163.428 37.256L161.892 39H160.724ZM163.916 37.016L163.42 36.44L165.012 34.8H166.188L163.916 37.016ZM170.851 39.08C170.36 39.08 169.918 38.984 169.523 38.792C169.134 38.6 168.824 38.3387 168.595 38.008C168.366 37.6773 168.251 37.3067 168.251 36.896C168.251 36.48 168.366 36.1093 168.595 35.784C168.824 35.4533 169.134 35.192 169.523 35C169.918 34.808 170.36 34.712 170.851 34.712C171.342 34.712 171.798 34.784 172.219 34.928C172.64 35.072 172.971 35.272 173.211 35.528L172.747 36.2C172.603 36.0613 172.424 35.936 172.211 35.824C172.003 35.712 171.782 35.624 171.547 35.56C171.312 35.4907 171.08 35.456 170.851 35.456C170.51 35.456 170.208 35.52 169.947 35.648C169.686 35.7707 169.48 35.9413 169.331 36.16C169.187 36.3733 169.115 36.6187 169.115 36.896C169.115 37.1733 169.192 37.4213 169.347 37.64C169.507 37.8533 169.718 38.024 169.979 38.152C170.246 38.2747 170.539 38.336 170.859 38.336C171.147 38.336 171.406 38.3067 171.635 38.248C171.87 38.184 172.078 38.1067 172.259 38.016C172.446 37.9253 172.614 37.8373 172.763 37.752L173.211 38.392C172.912 38.5733 172.568 38.7333 172.179 38.872C171.795 39.0107 171.352 39.08 170.851 39.08ZM178.066 39.08C177.511 39.08 177.018 38.9893 176.586 38.808C176.154 38.6213 175.815 38.368 175.57 38.048C175.33 37.7227 175.21 37.3547 175.21 36.944C175.21 36.592 175.282 36.28 175.426 36.008C175.575 35.7307 175.778 35.496 176.034 35.304C176.295 35.112 176.594 34.9653 176.93 34.864C177.266 34.7573 177.621 34.704 177.994 34.704C178.346 34.704 178.677 34.7547 178.986 34.856C179.295 34.952 179.567 35.0907 179.802 35.272C180.037 35.4533 180.218 35.6693 180.346 35.92C180.479 36.1653 180.543 36.44 180.538 36.744L180.53 37.176H175.978L175.794 36.52H179.818L179.698 36.576V36.384C179.671 36.2027 179.573 36.0427 179.402 35.904C179.237 35.7653 179.029 35.6587 178.778 35.584C178.533 35.504 178.271 35.464 177.994 35.464C177.631 35.464 177.301 35.5093 177.002 35.6C176.703 35.6907 176.466 35.84 176.29 36.048C176.114 36.256 176.026 36.536 176.026 36.888C176.026 37.176 176.119 37.4267 176.306 37.64C176.493 37.8533 176.751 38.0187 177.082 38.136C177.413 38.2533 177.794 38.312 178.226 38.312C178.658 38.312 179.015 38.256 179.298 38.144C179.581 38.032 179.81 37.9253 179.986 37.824L180.346 38.448C180.186 38.5547 179.983 38.6587 179.738 38.76C179.498 38.856 179.234 38.9333 178.946 38.992C178.658 39.0507 178.365 39.08 178.066 39.08ZM183.375 39V33.08H184.199V39H183.375ZM187.563 39V33.08H188.387V39H187.563ZM193.808 39.08C193.254 39.08 192.76 38.9893 192.328 38.808C191.896 38.6213 191.558 38.368 191.312 38.048C191.072 37.7227 190.952 37.3547 190.952 36.944C190.952 36.592 191.024 36.28 191.168 36.008C191.318 35.7307 191.52 35.496 191.776 35.304C192.038 35.112 192.336 34.9653 192.672 34.864C193.008 34.7573 193.363 34.704 193.736 34.704C194.088 34.704 194.419 34.7547 194.728 34.856C195.038 34.952 195.31 35.0907 195.544 35.272C195.779 35.4533 195.96 35.6693 196.088 35.92C196.222 36.1653 196.286 36.44 196.28 36.744L196.272 37.176H191.72L191.536 36.52H195.56L195.44 36.576V36.384C195.414 36.2027 195.315 36.0427 195.144 35.904C194.979 35.7653 194.771 35.6587 194.52 35.584C194.275 35.504 194.014 35.464 193.736 35.464C193.374 35.464 193.043 35.5093 192.744 35.6C192.446 35.6907 192.208 35.84 192.032 36.048C191.856 36.256 191.768 36.536 191.768 36.888C191.768 37.176 191.862 37.4267 192.048 37.64C192.235 37.8533 192.494 38.0187 192.824 38.136C193.155 38.2533 193.536 38.312 193.968 38.312C194.4 38.312 194.758 38.256 195.04 38.144C195.323 38.032 195.552 37.9253 195.728 37.824L196.088 38.448C195.928 38.5547 195.726 38.6587 195.48 38.76C195.24 38.856 194.976 38.9333 194.688 38.992C194.4 39.0507 194.107 39.08 193.808 39.08ZM199.198 39V34.8H200.022V35.984L199.718 36C199.84 35.7973 199.998 35.5973 200.19 35.4C200.387 35.2027 200.619 35.04 200.886 34.912C201.158 34.7787 201.462 34.712 201.798 34.712C202.24 34.712 202.608 34.7947 202.902 34.96C203.2 35.12 203.424 35.3387 203.574 35.616C203.723 35.888 203.798 36.1893 203.798 36.52V39H202.974V36.656C202.974 36.4213 202.91 36.216 202.782 36.04C202.659 35.864 202.494 35.728 202.286 35.632C202.083 35.5307 201.856 35.48 201.606 35.48C201.376 35.48 201.163 35.5227 200.966 35.608C200.774 35.688 200.606 35.7947 200.462 35.928C200.323 36.056 200.214 36.1947 200.134 36.344C200.059 36.4933 200.022 36.6373 200.022 36.776V39H199.614C199.475 39 199.371 39 199.302 39C199.232 39 199.198 39 199.198 39ZM209.195 39.08C208.704 39.08 208.261 38.984 207.867 38.792C207.477 38.6 207.168 38.3387 206.939 38.008C206.709 37.6773 206.595 37.3067 206.595 36.896C206.595 36.48 206.709 36.1093 206.939 35.784C207.168 35.4533 207.477 35.192 207.867 35C208.261 34.808 208.704 34.712 209.195 34.712C209.685 34.712 210.141 34.784 210.563 34.928C210.984 35.072 211.315 35.272 211.555 35.528L211.091 36.2C210.947 36.0613 210.768 35.936 210.555 35.824C210.347 35.712 210.125 35.624 209.891 35.56C209.656 35.4907 209.424 35.456 209.195 35.456C208.853 35.456 208.552 35.52 208.291 35.648C208.029 35.7707 207.824 35.9413 207.675 36.16C207.531 36.3733 207.459 36.6187 207.459 36.896C207.459 37.1733 207.536 37.4213 207.691 37.64C207.851 37.8533 208.061 38.024 208.323 38.152C208.589 38.2747 208.883 38.336 209.203 38.336C209.491 38.336 209.749 38.3067 209.979 38.248C210.213 38.184 210.421 38.1067 210.603 38.016C210.789 37.9253 210.957 37.8373 211.107 37.752L211.555 38.392C211.256 38.5733 210.912 38.7333 210.523 38.872C210.139 39.0107 209.696 39.08 209.195 39.08ZM216.41 39.08C215.855 39.08 215.362 38.9893 214.93 38.808C214.498 38.6213 214.159 38.368 213.914 38.048C213.674 37.7227 213.554 37.3547 213.554 36.944C213.554 36.592 213.626 36.28 213.77 36.008C213.919 35.7307 214.122 35.496 214.378 35.304C214.639 35.112 214.938 34.9653 215.274 34.864C215.61 34.7573 215.964 34.704 216.338 34.704C216.69 34.704 217.02 34.7547 217.33 34.856C217.639 34.952 217.911 35.0907 218.146 35.272C218.38 35.4533 218.562 35.6693 218.69 35.92C218.823 36.1653 218.887 36.44 218.882 36.744L218.874 37.176H214.322L214.138 36.52H218.162L218.042 36.576V36.384C218.015 36.2027 217.916 36.0427 217.746 35.904C217.58 35.7653 217.372 35.6587 217.122 35.584C216.876 35.504 216.615 35.464 216.338 35.464C215.975 35.464 215.644 35.5093 215.346 35.6C215.047 35.6907 214.81 35.84 214.634 36.048C214.458 36.256 214.37 36.536 214.37 36.888C214.37 37.176 214.463 37.4267 214.65 37.64C214.836 37.8533 215.095 38.0187 215.426 38.136C215.756 38.2533 216.138 38.312 216.57 38.312C217.002 38.312 217.359 38.256 217.642 38.144C217.924 38.032 218.154 37.9253 218.33 37.824L218.69 38.448C218.53 38.5547 218.327 38.6587 218.082 38.76C217.842 38.856 217.578 38.9333 217.29 38.992C217.002 39.0507 216.708 39.08 216.41 39.08Z" fill="#101010"/>
</svg>
