<svg width="53" height="53" viewBox="0 0 53 53" fill="none" xmlns="http://www.w3.org/2000/svg">
<path d="M15.4139 45.9342V49.26C15.4139 51.1195 13.9119 52.5857 12.0882 52.5857C10.2644 52.5857 8.76241 51.1195 8.76241 49.26V45.9342H5.40063V35.0626C5.40063 32.6666 7.00989 30.6996 9.19138 30.0918L13.0894 20.8294C13.6616 19.4705 14.9847 18.5049 16.5582 18.5049H36.4775C38.0509 18.5049 39.3743 19.4705 39.9463 20.8294L43.8087 30.0918C45.9901 30.6998 47.5994 32.6666 47.5994 35.0626V45.9342H44.202V49.26C44.202 51.1195 42.7 52.5857 40.8763 52.5857C39.0167 52.5857 37.5505 51.1195 37.5505 49.26V45.9342H15.4139ZM12.3026 39.962C14.1622 39.962 15.6642 38.46 15.6642 36.6004C15.6642 34.7409 14.1622 33.2389 12.3026 33.2389C10.4431 33.2389 8.94108 34.7409 8.94108 36.6004C8.94108 38.46 10.4429 39.962 12.3026 39.962ZM43.8445 36.6004C43.8445 34.7409 42.3425 33.2389 40.4829 33.2389C38.6234 33.2389 37.1213 34.7409 37.1213 36.6004C37.1213 38.46 38.6234 39.962 40.4829 39.962C42.3425 39.962 43.8445 38.46 43.8445 36.6004ZM40.4829 29.9129L37.1572 21.9022C37.0141 21.5089 36.6207 21.2228 36.1558 21.2228H16.8443C16.4151 21.2228 16.0218 21.5089 15.8787 21.9022L12.5529 29.9129H40.4829ZM31.4503 7.58273C31.4503 10.3265 29.232 12.5097 26.5234 12.5097C23.8148 12.5097 21.5963 10.3031 21.5963 7.58273C21.5963 4.83894 23.8146 2.6558 26.5232 2.6558C29.2318 2.6558 31.4503 4.85074 31.4503 7.58273ZM41.2576 0.414062V14.7048H11.7424V0.414062H41.2576ZM36.9261 1.85003H16.0505C15.6652 3.27441 14.6028 4.44206 13.1668 4.80395V10.2797C14.5912 10.665 15.6886 11.8325 16.0505 13.0235H36.9495C37.3348 11.8327 38.4207 10.6418 39.8566 10.2797V4.80395C38.4089 4.44206 37.2648 3.27461 36.9261 1.85003Z" fill="#EB1C28"/>
</svg>
