<svg width="239" height="46" viewBox="0 0 239 46" fill="none" xmlns="http://www.w3.org/2000/svg">
<path d="M8.37659 11.12C9.36036 10.8279 10.4165 11.0616 11.4292 10.9886C13.1074 10.8571 14.8145 10.7549 16.4927 10.8863C16.8689 10.8863 16.9991 11.2514 17.1727 11.5143C16.9991 12.2006 16.623 12.8286 16.0587 13.2667C16.4059 12.6971 16.6664 12.0838 16.9123 11.4851C15.6536 10.8863 14.2214 11.0178 12.8759 11.0616C11.3858 11.1638 9.88119 11.1346 8.37659 11.12Z" fill="white"/>
<path d="M7.74001 11.821C7.82682 11.5143 8.02936 11.1638 8.37658 11.12C9.88118 11.1346 11.3858 11.1638 12.8759 11.0616C14.2214 11.0178 15.6536 10.8863 16.9123 11.4851C16.6663 12.0838 16.4059 12.6971 16.0587 13.2667C14.6554 14.4203 13.3099 15.647 11.8921 16.8006C10.6769 17.8521 9.25908 18.8889 8.82506 20.5244C8.53572 21.5175 8.63699 22.6127 9.09994 23.5327C9.34589 23.9416 9.67863 24.2921 9.96798 24.6717C10.2429 25.1537 10.5177 25.6502 10.8939 26.0736C11.6028 26.8184 12.1959 27.68 12.9193 28.4102C13.3389 28.8921 13.8452 29.3886 13.932 30.0603C14.0044 30.6298 13.9899 31.3308 13.4835 31.7105C12.9338 32.2362 12.1381 32.1924 11.4292 32.1924C10.0403 32.1486 8.65146 32.2508 7.26259 32.0902C6.42349 32.0025 5.56992 32.0317 4.73081 32.0025C4.70188 31.4622 4.67294 30.9073 4.71635 30.3378C4.74528 29.2863 5.35291 28.3225 5.1793 27.2419C5.16483 26.6724 5.41078 26.1175 5.42524 25.5479C5.43971 24.5841 5.77246 23.6641 5.90267 22.7295C6.20648 20.4076 6.6839 18.1295 7.03112 15.8076C7.36386 14.5079 7.36386 13.1352 7.74001 11.821Z" fill="white"/>
<path d="M23.5239 11.7333C23.8711 11.4267 24.2183 10.974 24.7247 11.0178C26.2727 11.0178 27.8207 11.0178 29.3687 11.0178C30.2078 11.0324 31.0613 10.974 31.9004 11.12C31.9004 11.3147 31.9004 11.5094 31.9004 11.7041C31.6979 11.7187 31.4809 11.7479 31.3217 11.894C30.6852 12.4051 30.121 12.9892 29.5133 13.5441C28.8044 14.1721 28.11 14.8292 27.43 15.4864C26.2003 16.494 25.0719 17.633 23.8711 18.6698C23.5239 19.0057 23.0898 19.3124 22.9886 19.8235C23.2345 20.2616 23.6685 20.5244 24.0013 20.8749C25.1153 22.0432 26.0556 23.3721 27.1696 24.5403C28.3752 26.0006 29.5953 27.4512 30.8299 28.8921C31.3652 29.5492 31.9004 30.221 32.4936 30.8343C33.0144 31.4476 33.6655 32.061 33.8101 32.9079C33.9114 33.4775 33.6655 34.047 33.2459 34.4121C32.7106 34.9232 32.1753 35.4781 31.5388 35.887C28.6019 36.0184 25.6506 35.9016 22.7137 35.96C22.4678 35.6533 22.1929 35.3759 21.918 35.0984C21.4116 34.5727 21.05 33.9448 20.5436 33.4044C19.6756 32.4844 19.0245 31.36 18.1276 30.44C17.7803 30.0603 17.5199 29.6076 17.1872 29.2133C16.1455 28.1181 15.3354 26.8038 14.3082 25.694C13.498 24.5403 12.3117 23.6641 11.8053 22.306C11.7909 21.7511 12.2249 21.2546 12.6155 20.8895C13.0206 20.5829 13.498 20.3492 13.8452 19.9549C14.2069 19.5314 14.6843 19.2394 15.1473 18.9181C15.7115 18.5238 16.1166 17.9543 16.6519 17.5308C16.9991 17.2387 17.4042 17.0051 17.7803 16.7276C18.2433 16.3917 18.5905 15.9244 18.9956 15.5156C19.4296 15.0921 19.9649 14.8 20.4568 14.4641C20.8474 14.2013 21.1368 13.807 21.484 13.4857C22.1061 12.8432 22.8873 12.3759 23.5239 11.7333Z" fill="white"/>
<path d="M17.1727 11.5143C17.7369 11.4851 18.4314 11.4851 18.822 11.9816C18.9088 12.5219 18.6484 13.0768 18.2722 13.4565C16.1889 15.3403 13.9754 17.0927 11.9066 19.0203C11.4871 19.4 11.1543 19.8819 10.8505 20.3638C10.2284 19.8089 9.46164 20.3054 8.81061 20.5244C9.25909 18.8889 10.6769 17.8521 11.8921 16.8006C13.3099 15.647 14.6554 14.4203 16.0587 13.2667C16.623 12.8286 16.9991 12.2006 17.1727 11.5143Z" fill="#E1E1E1"/>
<path d="M31.3217 11.894C31.4809 11.7479 31.6979 11.7187 31.9004 11.7041C32.5949 11.6944 33.2893 11.6944 33.9837 11.7041C32.2332 13.3251 30.4103 14.873 28.7031 16.5378C27.9942 17.1219 27.3432 17.7937 26.6488 18.3924C26.0556 19.0057 25.3467 19.473 24.797 20.1302C24.7536 20.4368 24.7825 20.8019 25.0719 20.9771C26.2582 21.8241 26.9671 23.1384 27.9798 24.146C28.5874 24.774 29.0648 25.5041 29.6435 26.1467C29.8895 26.4679 30.1933 26.7454 30.3814 27.1105C30.6128 27.7384 30.8877 28.3664 31.1626 28.9943C31.0758 28.9651 30.9022 28.9213 30.8298 28.8921C29.5953 27.4512 28.3752 26.0006 27.1696 24.5403C26.0556 23.3721 25.1153 22.0432 24.0013 20.8749C23.6685 20.5245 23.2345 20.2616 22.9886 19.8235C23.0898 19.3124 23.5238 19.0057 23.8711 18.6698C25.0718 17.633 26.2003 16.494 27.43 15.4864C27.7483 15.5302 28.11 15.5886 28.3559 15.3257C28.8912 14.8584 29.6725 14.3765 29.5133 13.5441C30.1209 12.9892 30.6852 12.4051 31.3217 11.894Z" fill="#E1E1E1"/>
<path d="M27.3432 15.5594C28.0955 14.8292 28.8478 14.099 29.6435 13.3981C29.8027 14.3181 28.9491 14.873 28.3704 15.3841C28.0955 15.6762 27.6904 15.6178 27.3432 15.5594Z" fill="#E1E1E1"/>
<path d="M199.316 14.4203C201.255 14.3181 203.193 14.4349 205.146 14.3911C204.828 15.4425 204.438 16.4648 203.975 17.4724C203.497 18.6114 203.121 19.7797 202.716 20.9479C201.949 22.7295 201.327 24.5841 200.633 26.3949C200.604 26.4533 200.546 26.5848 200.531 26.6432C202.571 26.76 204.626 26.6724 206.68 26.76C204.481 27.0229 202.253 26.7308 200.04 26.8768C200.083 27.6362 200.575 28.2349 200.734 28.9359C200.025 29.0673 199.316 29.1549 198.593 29.2717C197.725 29.4178 196.871 29.1549 196.018 29.0819C195.497 29.0527 194.99 28.9067 194.513 28.673C194.33 28.8288 194.151 28.9894 193.978 29.1549C193.992 28.9213 194.007 28.7022 194.021 28.4832C194.253 27.3587 194.831 26.3657 195.193 25.2851C196.129 22.861 197.054 20.4368 197.971 18.0127C198.043 17.8521 198.115 17.5746 198.347 17.6038C199.707 17.5892 201.067 17.6476 202.427 17.6622C201.472 16.5086 200.257 15.5886 199.316 14.4203Z" fill="white"/>
<path fill-rule="evenodd" clip-rule="evenodd" d="M229.104 14.4787C230.681 14.4057 232.229 14.6832 233.792 14.7124C233.633 15.4864 233.228 16.1727 232.924 16.9029C231.983 19.1079 231 21.2984 230.204 23.5765C229.972 24.2191 229.712 24.847 229.509 25.4895C228.887 27.1105 228.41 28.7752 227.961 30.4546C226.457 30.4692 224.967 30.4254 223.462 30.4692L223.317 30.4838C223.308 30.1917 223.303 29.9046 223.303 29.6222C222.406 29.7391 221.538 30.1041 220.627 30.1917C219.469 30.3524 218.196 30.4108 217.169 29.7391C216.677 29.4616 216.503 28.9067 216.257 28.4248C216.127 27.3003 216.301 26.1467 216.662 25.0806C217.053 23.8832 217.429 22.6419 218.167 21.6051C219.021 19.9257 220.583 18.7283 222.247 17.9251C223.071 17.6768 223.954 17.6038 224.822 17.5892C225.82 17.5454 226.761 18.0565 227.412 18.7867C227.614 18.3486 227.817 17.9105 227.961 17.4578C228.28 16.4356 228.743 15.4864 229.104 14.4787ZM224.967 20.2908C224.214 20.9771 223.723 21.8971 223.231 22.7733C222.594 23.8832 222.175 25.1244 222.059 26.4095C222.015 26.8038 222.073 27.1981 222.247 27.5486C222.753 27.8114 223.303 27.5048 223.665 27.1397C224.402 26.2927 225.082 25.3581 225.502 24.2921C226.052 22.9632 226.659 21.4883 226.211 20.0279C225.791 19.9987 225.314 19.9695 224.967 20.2908Z" fill="white"/>
<path d="M109.59 14.5079C111.717 14.4787 113.843 14.5517 115.97 14.5663C115.97 15.2381 115.97 15.9098 115.984 16.5816C115.956 17.6184 115.898 18.6552 115.927 19.7067C115.912 20.0863 116.071 20.4368 116.23 20.7727C116.279 20.578 116.327 20.3881 116.375 20.2032C116.621 19.7505 116.954 19.3562 117.315 18.9911C118.198 17.9835 119.066 16.9321 119.992 15.9537C120.368 15.5448 120.686 15.0629 121.106 14.6978C121.323 14.5956 121.583 14.6248 121.815 14.6248C123.493 14.6686 125.186 14.6686 126.878 14.8C126.82 15.5594 126.415 16.2311 126.184 16.9467C125.793 18.261 125.215 19.473 124.752 20.8165C124.723 20.7581 124.771 20.8749 124.752 20.8165C124.202 22.1016 123.667 23.2698 123.204 24.6133C122.509 26.5702 121.627 28.454 120.99 30.44C119.052 30.4692 117.113 30.3086 115.174 30.2502C115.435 28.9505 116.071 27.7822 116.476 26.5117C116.766 25.7086 117.012 24.8908 117.388 24.1168C117.576 23.7079 117.706 23.2698 117.807 22.8171C117.504 23.0362 117.229 23.2698 116.983 23.5473C115.811 24.7594 114.61 25.9422 113.395 27.1105C113.221 27.2662 113.043 27.422 112.86 27.5778C112.7 26.4679 112.787 25.3435 112.686 24.219C112.628 23.4889 112.599 22.7587 112.599 22.0286C111.557 24.8178 110.386 27.5486 109.344 30.3378C107.492 30.3232 105.64 30.3086 103.789 30.1917C104.02 29.1111 104.512 28.1181 104.874 27.0813C105.525 25.4895 106.132 23.8832 106.725 22.2768C107.275 20.9917 107.709 19.6483 108.244 18.3486C108.49 17.779 109.17 17.9543 109.662 17.9251C110.834 17.9835 112.02 17.8521 113.207 18.0273C112.18 18.3632 111.08 17.9105 110.053 18.3048C111.239 18.4216 112.411 18.334 113.597 18.4508C113.568 17.8521 113.438 17.2095 113.728 16.6546C113.901 16.1873 114.248 15.6616 114.002 15.1651C113.785 14.7416 113.265 14.7416 112.86 14.7416C111.861 14.7562 110.863 14.6832 109.894 14.9606C109.788 14.8146 109.686 14.6637 109.59 14.5079Z" fill="white"/>
<path d="M109.894 14.9606C110.863 14.6832 111.861 14.7562 112.86 14.7416C113.265 14.7416 113.785 14.7416 114.002 15.1651C114.248 15.6616 113.901 16.1873 113.728 16.6546C113.438 17.2095 113.568 17.8521 113.597 18.4508C112.411 18.334 111.225 18.4362 110.053 18.3048C111.08 17.9105 112.18 18.3632 113.207 18.0273C112.02 17.8521 110.834 17.9835 109.662 17.9251C109.17 17.9543 108.49 17.7791 108.244 18.3486C108.264 18.1831 108.283 18.0224 108.302 17.8667C109.778 17.8375 111.239 17.9251 112.715 17.8521C112.31 17.3118 111.774 16.9029 111.326 16.4064C110.863 15.9098 110.386 15.4425 109.894 14.9606Z" fill="white"/>
<path d="M144.861 15.7492C144.89 15.3695 144.977 15.0044 145.064 14.6394C146.496 14.6686 147.928 14.6394 149.361 14.6978C149.404 15.3987 149.404 16.1143 149.129 16.7568C149.09 16.9029 149.004 16.9953 148.869 17.0343C148.464 16.8883 148.102 16.64 147.682 16.5086C146.872 16.3333 146.019 16.786 145.223 16.5378C145.02 16.3187 144.948 16.0121 144.861 15.7492Z" fill="white"/>
<path d="M149.361 14.6978C149.582 14.7367 149.799 14.7708 150.012 14.8C149.925 15.9244 149.491 16.9905 149.375 18.1295C150.055 18.1441 150.735 18.1441 151.429 18.1733C151.183 18.9473 150.923 19.7359 150.663 20.5098C150.561 20.8019 150.489 21.094 150.402 21.4006C149.534 21.4152 148.652 21.3568 147.784 21.4883H147.668C147.422 22.2914 147.075 23.0508 146.771 23.8248C146.062 25.7232 145.425 27.6216 144.673 29.4908C144.543 29.7975 144.485 30.1771 144.254 30.44C142.648 30.4254 141.042 30.4546 139.436 30.3816C139.262 30.1625 139.479 29.8997 139.523 29.6806C140.087 28.1765 140.839 26.7454 141.302 25.1975C141.794 23.9854 142.214 22.7441 142.735 21.5321C141.997 21.313 141.215 21.5029 140.478 21.2838C140.753 20.2324 141.187 19.2248 141.476 18.1879C141.519 18.1441 141.606 18.0711 141.649 18.0419C142.561 18.0127 143.501 18.0419 144.427 18.0419C144.5 17.2679 144.63 16.494 144.847 15.7492C144.948 16.0121 145.02 16.3187 145.223 16.5378C146.019 16.786 146.872 16.3333 147.682 16.5086C148.102 16.64 148.464 16.8883 148.869 17.0343C149.004 16.9953 149.091 16.9029 149.129 16.7568C149.404 16.1143 149.404 15.3987 149.361 14.6978Z" fill="white"/>
<path d="M212.395 14.6686C214.087 14.6394 215.794 14.6394 217.487 14.7562C217.154 15.866 216.836 16.9759 216.764 18.1295C217.429 18.1393 218.095 18.1441 218.76 18.1441C218.485 19.2686 218.037 20.3492 217.588 21.4298C216.706 21.4152 215.823 21.386 214.955 21.5029C214.666 22.6127 214.131 23.6349 213.769 24.7302C213.451 25.694 213.046 26.6286 212.713 27.5924C212.438 28.5708 211.888 29.447 211.686 30.44C209.993 30.4254 208.3 30.4254 206.622 30.4108C206.637 30.3378 206.695 30.2063 206.723 30.1479L206.767 30.0457C207.794 30.3524 208.865 30.2063 209.921 30.2502C210.326 30.2356 210.76 30.2794 211.15 30.1333C211.324 29.9873 211.454 29.7975 211.613 29.6076C211.411 29.447 211.223 29.2571 211.006 29.1257C210.384 28.9797 209.704 29.1111 209.111 28.819C208.778 28.7168 208.416 28.3956 208.083 28.6292C207.693 28.8775 207.346 29.1987 206.984 29.4762C207.346 28.527 207.736 27.5778 208.083 26.6286C208.705 24.8908 209.472 23.226 210.051 21.4883C209.313 21.3276 208.546 21.4444 207.808 21.2838C208.083 20.2324 208.546 19.2102 208.734 18.1295C209.718 17.9397 210.731 18.0711 211.729 18.0273C211.874 16.9029 212.207 15.8076 212.395 14.6686Z" fill="white"/>
<path d="M43.2283 14.946C44.0096 14.8438 44.7908 14.9168 45.572 14.9022C46.7584 14.9168 47.9591 14.8876 49.1599 14.9606C48.8272 15.6032 48.6536 16.3187 48.3642 16.9759C47.9591 17.7498 47.6987 18.6114 47.4528 19.4438C47.4239 19.473 47.366 19.5168 47.3226 19.546C47.2213 19.2248 47.149 18.8743 46.9464 18.5968C46.7584 18.4362 46.5414 18.3486 46.3243 18.2464C45.2972 17.1365 44.27 16.0413 43.2283 14.946Z" fill="white"/>
<path d="M59.5475 15.6908C59.6921 15.3987 59.8079 15.0629 60.0249 14.8C61.5006 14.7708 62.9907 14.7708 64.4808 14.8146C64.394 15.6178 63.8877 16.4064 63.8009 17.2095C62.1371 17.2533 60.6759 17.1219 59.0122 17.1365C59.0411 16.6108 59.3449 16.1581 59.5475 15.6908Z" fill="white"/>
<path d="M50.8526 16.567C51.3734 16.0997 51.8364 15.574 52.3862 15.1651C52.8057 15.0337 53.2542 15.1359 53.6737 15.1213C55.106 15.1067 56.5527 15.1943 57.9995 15.2089C57.7535 15.793 57.1604 16.0705 56.7553 16.5086C55.54 17.4724 54.455 18.5822 53.2108 19.5168C52.01 20.5244 50.8671 21.5905 49.6808 22.6127C49.8688 23.6203 50.2884 24.5695 50.6211 25.5333C51.0118 26.614 51.2577 27.753 51.6628 28.8337C51.8364 29.301 52.01 29.7683 52.1113 30.2648C50.2016 30.2794 48.2774 30.3232 46.3678 30.2356C46.2906 29.7293 46.1459 29.2474 45.9337 28.7898C45.4852 27.7676 45.0946 26.7308 44.6461 25.7232C44.1687 26.2635 43.9951 26.979 43.7202 27.6362C43.4598 28.5416 42.9824 29.3594 42.7509 30.2794C40.7255 30.2794 38.6856 30.3232 36.6602 30.2502C37.1376 29.301 37.5282 28.3079 37.9188 27.3149C39.0184 24.4089 40.277 21.5759 41.4199 18.699C41.5067 18.5092 41.5646 18.2317 41.825 18.2756C43.3152 18.2317 44.8198 18.3048 46.3244 18.2463C46.5414 18.3486 46.7584 18.4362 46.9464 18.5968C47.149 18.8743 47.2213 19.2248 47.3226 19.546C47.366 19.5168 47.4239 19.473 47.4528 19.4438C48.697 18.626 49.6952 17.487 50.8526 16.567Z" fill="white"/>
<path d="M86.4856 24.9346C87.4405 22.5397 88.323 20.101 88.8727 17.56L88.9595 17.6038C89.7408 17.9543 90.6088 17.7498 91.4334 17.7791C92.1134 17.7644 92.7789 17.9105 93.4299 18.0419C95.0213 18.2464 96.6417 17.8959 98.2041 18.2756C98.8841 18.553 99.4917 19.1079 99.6798 19.8527C100.013 21.1962 99.4339 22.5251 98.9275 23.7371C98.3343 24.9346 97.9437 26.2197 97.394 27.4464C97.0612 28.4978 96.5404 29.4908 96.2077 30.5422C95.1226 30.3232 94.0086 30.4692 92.9236 30.367C92.6246 30.3475 92.3208 30.3232 92.0121 30.294C92.3159 28.7022 93.0393 27.2565 93.5312 25.7378C93.9363 24.4235 94.486 23.153 94.8622 21.8387C94.9201 21.386 94.8767 20.7143 94.3848 20.5244C93.6903 20.3346 92.9814 20.6997 92.4462 21.1378C91.9687 21.8679 91.7662 22.7441 91.4624 23.5473C91.0139 24.7448 90.4786 25.8838 90.0735 27.0959C89.6974 28.2203 89.1621 29.2864 88.8583 30.44C87.4115 30.4546 85.9648 30.3962 84.5181 30.3816C84.8942 28.4832 85.878 26.7746 86.4856 24.9346Z" fill="white"/>
<path d="M177.514 19.1225C178.556 18.3778 179.684 17.6914 180.957 17.5016C180.972 17.8667 181.015 18.2463 180.957 18.6114C180.812 19.0057 180.407 19.2248 180.017 19.3124C179.178 19.5022 178.339 19.2978 177.514 19.1225Z" fill="white"/>
<path d="M202.716 20.9479C203.121 19.7797 203.497 18.6114 203.975 17.4724C203.787 18.2463 203.714 19.0495 203.714 19.8527C203.743 20.4368 203.15 20.7289 202.716 20.9479Z" fill="#F3EFE6"/>
<path d="M88.9595 17.6038C89.6395 17.5162 90.3195 17.56 90.9994 17.56C91.7951 17.5746 92.6053 17.5308 93.401 17.6184C93.4155 17.7206 93.4299 17.9251 93.4299 18.0419C92.7789 17.9105 92.1134 17.7644 91.4334 17.779C90.6088 17.7498 89.7408 17.9543 88.9595 17.6038Z" fill="white"/>
<path fill-rule="evenodd" clip-rule="evenodd" d="M132.448 17.7352C134.17 17.5454 136.036 17.8667 137.411 19.0057C138.727 19.9403 139.291 21.6343 139.19 23.2114C139.06 24.6279 138.351 25.9276 137.483 27.0375C137.107 27.4464 136.673 27.7822 136.297 28.1765C135.761 28.7022 135.067 28.9943 134.43 29.3594C132.593 30.367 130.423 30.7029 128.383 30.294C127.399 29.9727 126.329 29.6514 125.634 28.8337C124.81 28.1181 124.245 27.0813 124.202 25.9714C124.028 23.8248 125.084 21.7219 126.69 20.3638C128.267 18.9327 130.307 17.9105 132.448 17.7352ZM132.318 20.6705C131.566 21.0502 131.074 21.7511 130.611 22.4229C129.83 23.6203 129.179 25.066 129.482 26.541C129.482 26.8914 129.916 26.9791 130.206 26.9206C130.828 26.7892 131.233 26.2635 131.653 25.8254C132.477 24.8032 133.114 23.6057 133.374 22.306C133.461 21.7803 133.577 21.1816 133.215 20.7435C133.085 20.3346 132.578 20.5244 132.318 20.6705Z" fill="white"/>
<path fill-rule="evenodd" clip-rule="evenodd" d="M156.493 17.9543C158.171 17.6038 160.008 17.5162 161.614 18.2318C162.555 18.5968 163.336 19.2832 163.958 20.0718C164.609 21.2254 164.869 22.6419 164.508 23.9416C164.291 24.6571 164.059 25.3873 163.582 25.986C162.96 27.2565 161.846 28.2349 160.631 28.9505C158.041 30.6737 154.41 31.0825 151.704 29.3886C150.894 28.746 150.214 27.9429 149.838 26.9644C149.708 26.1759 149.563 25.3581 149.737 24.5549C149.896 23.9124 150.127 23.2991 150.359 22.6857C150.605 22.0724 151.053 21.6051 151.458 21.094C152.746 19.546 154.583 18.553 156.493 17.9543ZM155.943 22.5981C155.263 23.7664 154.656 25.1537 154.945 26.541C154.959 26.9352 155.437 27.0229 155.741 26.9206C156.797 26.6432 157.303 25.5479 157.925 24.7302C158.475 23.6349 159.083 22.4375 158.895 21.167C158.779 20.9041 158.605 20.6705 158.46 20.4368C157.289 20.6267 156.565 21.6781 155.943 22.5981Z" fill="white"/>
<path d="M180.769 17.5162C182.288 17.5454 183.807 17.5016 185.326 17.5454C186.556 17.5454 187.67 18.2317 188.61 18.9765C189.131 19.7943 189.478 20.7143 189.507 21.6781C187.8 21.6635 186.093 21.7073 184.386 21.6635C183.995 21.0648 183.518 20.32 182.722 20.3346C182.245 20.2324 181.898 20.7143 181.941 21.1524C181.955 21.6927 182.158 22.4229 182.795 22.5105C183.778 22.7441 184.748 23.0216 185.731 23.2552C186.759 23.4743 187.467 24.4089 187.858 25.3435C188.118 25.8692 188.061 26.4825 187.93 27.0375C187.641 27.9575 186.845 28.5854 186.064 29.0673C184.704 29.8559 183.142 30.3378 181.565 30.4546C180.118 30.4838 178.671 30.4546 177.225 30.4546C176.574 30.4546 175.937 30.3232 175.344 30.0895C174.837 29.7683 174.273 29.4908 173.998 28.9359C173.463 28.1765 173.318 27.2273 173.362 26.3073C175.185 26.2489 177.012 26.2099 178.845 26.1905C179.047 26.9352 179.641 27.6362 180.393 27.7968C180.972 27.7238 181.521 27.4463 181.984 27.1105C182.216 26.614 182.346 25.9276 181.796 25.5917C180.885 25.0076 179.727 25.0222 178.671 24.9054C177.63 24.9346 176.689 24.2775 176.067 23.4889C175.734 22.934 175.445 22.2622 175.677 21.6051C175.792 20.393 176.791 19.5752 177.688 18.9035H177.76C178.483 19.0495 179.221 19.2248 179.944 19.0641C180.277 18.9911 180.639 18.8013 180.769 18.4654C180.812 18.1441 180.769 17.8229 180.769 17.5162Z" fill="white"/>
<path d="M64.6689 17.9397C64.7557 17.706 65.045 17.7644 65.2331 17.7498C68.0542 17.7498 70.8609 17.7352 73.6676 17.8375C73.4361 18.7721 72.8863 19.6044 72.7851 20.5829C72.7465 20.3784 72.7127 20.1788 72.6838 19.9841C72.6838 20.1156 72.6983 20.393 72.6983 20.5244C71.5264 20.5683 70.3401 20.4368 69.1682 20.4806C68.7487 20.4514 68.4593 20.7873 68.2713 21.1232C67.1283 24.2483 66.0288 27.4025 64.9438 30.5568C64.5676 30.4838 64.177 30.4546 63.8009 30.4546C62.5133 30.4692 61.2257 30.4692 59.9381 30.44C60.5312 29.1257 60.864 27.6946 61.4427 26.3657C61.9924 24.9784 62.5567 23.5765 63.0341 22.16C63.2656 21.4298 63.5549 20.7289 63.8587 20.0279C64.1481 19.3416 64.2927 18.5968 64.6689 17.9397Z" fill="white"/>
<path d="M167.387 17.8521C168.139 17.6914 168.935 17.7644 169.702 17.7498C171.973 17.7352 174.244 17.7791 176.516 17.8229C176.183 18.6844 175.923 19.5752 175.474 20.3784C175.117 20.3492 174.765 20.3346 174.418 20.3346C174.519 20.1594 174.635 19.9987 174.736 19.8235C174.273 18.8889 173.13 18.5822 172.161 18.6698C171.568 18.7283 171.033 19.0349 170.526 19.2978C170.092 18.8597 169.962 18.0127 169.268 17.9543C168.66 17.8521 168.038 17.9397 167.474 18.1733L167.445 18.0857C167.43 18.0273 167.401 17.9105 167.387 17.8521Z" fill="white"/>
<path fill-rule="evenodd" clip-rule="evenodd" d="M73.8701 21.5029C75.1577 19.5606 77.2555 18.1295 79.5702 17.8375C80.337 17.779 81.1038 17.8229 81.885 17.8083C83.3173 17.779 84.8219 18.4946 85.5597 19.7651C85.7478 20.2032 85.7767 20.6851 85.8346 21.1524C85.9359 22.1454 85.415 23.0362 85.1546 23.9708C84.5036 26.0883 83.6211 28.1327 83.0858 30.2794C82.6807 30.294 82.2756 30.2794 81.885 30.3232C80.7566 30.4984 79.6281 30.3816 78.4997 30.4692C78.4514 30.2842 78.4032 30.1041 78.355 29.9289C76.6044 29.9873 74.8394 30.0457 73.0889 30.0019C72.3945 29.7829 71.7868 29.301 71.3383 28.7314C70.8465 28.1911 70.6873 27.3441 70.9911 26.6724C71.2081 26.1321 71.4107 25.5771 71.8447 25.1829C72.3945 24.7156 72.9008 24.1898 73.5229 23.8394C74.7092 23.0362 76.1704 23.3575 77.5159 23.1676C78.4273 23.0508 79.3677 23.0362 80.2936 22.9632C80.8578 22.9632 81.234 22.4521 81.4365 21.9556C81.5523 21.6051 81.6825 21.1232 81.3063 20.8749C80.9446 20.4368 80.3081 20.5098 79.8162 20.6705C79.1796 20.9333 78.8469 21.6051 78.2537 21.9556C76.7057 21.9848 75.1577 21.9994 73.6242 21.9263C73.7013 21.7803 73.7833 21.6392 73.8701 21.5029ZM76.8793 25.8838C76.344 26.3949 76.3874 27.1543 76.4453 27.826C77.0095 28.1035 77.6605 28.1765 78.2826 28.0597C78.7745 27.9283 79.1507 27.5632 79.5413 27.2565C79.9898 26.906 80.1634 26.3219 80.3225 25.7962C80.3804 25.4019 80.2647 24.8324 79.8017 24.7594C78.7022 24.4819 77.6461 25.1536 76.8793 25.8838Z" fill="white"/>
<path d="M167.387 18.0857C167.966 17.8375 168.602 17.7644 169.224 17.8667C169.933 17.9251 170.078 18.8013 170.512 19.254C171.047 18.9765 171.597 18.6552 172.204 18.6114C173.203 18.5092 174.375 18.8305 174.852 19.7943C174.751 19.9841 174.635 20.1448 174.519 20.32C174.876 20.32 175.122 20.3395 175.489 20.3784L175.416 20.4514C174.1 20.7581 173.087 20.32 171.77 20.5244C171.684 20.5682 171.524 20.6559 171.452 20.7143C170.83 21.3422 170.685 22.2768 170.367 23.08C170.203 23.0605 170.039 23.0362 169.875 23.007C169.658 22.5543 169.499 22.0724 169.152 21.6927C168.703 21.2984 168.052 21.2546 167.618 20.8457C167.271 20.3638 167.546 19.7359 167.589 19.1955C167.691 18.8159 167.503 18.4508 167.387 18.0857Z" fill="white"/>
<path d="M166.244 21.167C166.649 20.1448 166.982 19.0787 167.445 18.0857L167.474 18.1733C167.589 18.5092 167.777 18.8743 167.676 19.2394C167.633 19.7651 167.358 20.3638 167.705 20.8311C168.125 21.24 168.761 21.2838 169.21 21.6635C169.528 22.0286 169.687 22.4959 169.89 22.934C170.054 22.9534 170.218 22.9778 170.382 23.007C169.919 24.4673 169.325 25.8838 168.862 27.3587C168.544 28.3956 168.096 29.4032 167.792 30.4546C166.649 30.4546 165.492 30.4546 164.349 30.4546C163.828 30.4692 163.293 30.4838 162.786 30.3524C163.293 29.1403 163.698 27.8698 164.161 26.6432C164.913 24.8324 165.593 23.007 166.244 21.167Z" fill="white"/>
<path d="M8.82508 20.3784C9.46164 20.1594 10.2284 19.6775 10.8505 20.2178C10.3007 21.3714 10.2284 22.7879 10.8071 23.9562C11.0675 24.6133 11.6317 25.0806 12.0658 25.621C12.8615 26.4825 13.6138 27.3733 14.3661 28.2641C15.0316 29.0527 15.8707 29.8413 15.943 30.9365C16.0298 31.6959 15.4077 32.2654 14.8724 32.6889C14.0767 33.0832 13.1508 32.7911 12.2972 32.8349C12.384 32.6889 12.4708 32.5477 12.5576 32.4114C11.2701 32.3384 9.968 32.3676 8.66594 32.3676C8.27532 32.353 7.91364 32.4991 7.56642 32.6597C7.089 32.8057 6.58265 32.6597 6.10522 32.6159C6.13416 32.499 6.17756 32.2508 6.2065 32.1194C8.31872 32.0171 10.4454 32.2362 12.5721 32.2216C13.4402 32.0317 14.1491 31.2578 14.2214 30.3524C14.1201 29.3448 13.4546 28.5124 12.8181 27.7822C11.8343 26.7308 10.9662 25.5625 9.968 24.5257C9.67865 24.146 9.3459 23.7956 9.09996 23.3867C8.637 22.4667 8.53573 21.3714 8.82508 20.3784Z" fill="#E1E1E1"/>
<path d="M56.7987 22.3937C57.3918 21.0356 57.8403 19.6191 58.4479 18.2756C60.0538 18.2317 61.6452 18.334 63.2366 18.4654C62.6145 20.0279 62.1371 21.6343 61.4716 23.1822C61.2401 23.7225 61.1244 24.2921 60.9219 24.847C60.1117 26.6724 59.5764 28.6 58.8241 30.4546C57.117 30.4546 55.3953 30.4692 53.6882 30.44C53.8473 29.7098 54.1512 29.0235 54.4405 28.3371C55.2941 26.3803 55.9596 24.3505 56.7987 22.3937Z" fill="white"/>
<path d="M9.96798 24.6717C10.9662 25.7086 11.8343 26.8768 12.818 27.9283C13.4546 28.6584 14.1201 29.4908 14.2214 30.4984C14.149 31.4038 13.4401 32.1778 12.5721 32.3676C10.4454 32.3822 8.31871 32.1632 6.19201 32.2654C5.61332 32.3384 5.02016 32.3968 4.44147 32.2946C4.32573 31.3016 4.49934 30.3086 4.64401 29.3448C4.80315 28.6438 4.78869 27.8698 5.1793 27.2419C5.35291 28.3225 4.74528 29.2864 4.71635 30.3378C4.67295 30.9073 4.70188 31.4622 4.73082 32.0025C5.56992 32.0317 6.42349 31.9206 7.2626 32.0083C8.65146 32.1689 10.0403 32.0667 11.4292 32.1105C12.1381 32.1105 12.9338 32.2362 13.4835 31.7105C13.9899 31.3308 14.0044 30.6298 13.932 30.0603C13.8452 29.3886 13.3389 28.8921 12.9193 28.4102C12.196 27.68 11.6028 26.8184 10.8939 26.0737C10.5177 25.6502 10.2429 25.1537 9.96798 24.6717Z" fill="white"/>
<path d="M30.3814 27.1105C31.0324 27.5194 31.3941 28.2495 31.9149 28.8044C32.5515 29.6222 33.3616 30.3086 33.8969 31.214C33.5642 30.9657 33.217 30.7613 32.8698 30.5422C32.7444 30.6396 32.619 30.7369 32.4936 30.8343C31.9004 30.221 31.3652 29.5492 30.8299 28.8921C30.9022 28.9213 31.0758 28.9651 31.1626 28.9797C30.8877 28.3664 30.6129 27.7384 30.3814 27.1105Z" fill="#E1E1E1"/>
<path d="M206.68 26.76H206.854C206.593 28.0013 206.145 29.2133 205.855 30.4546C201.747 30.4546 197.652 30.44 193.544 30.4546C193.471 30.4546 193.341 30.4546 193.269 30.4546C193.37 29.7537 193.659 29.0819 194.021 28.4686C194.007 28.7022 193.992 28.9213 193.978 29.1549C194.151 28.9894 194.33 28.8288 194.513 28.673C194.99 28.9067 195.497 29.0527 196.018 29.0819C196.871 29.1549 197.725 29.4178 198.593 29.2717C199.316 29.1549 200.025 29.0673 200.748 28.9359C200.575 28.2349 200.083 27.6362 200.04 26.8768C202.253 26.7308 204.481 27.0229 206.68 26.76Z" fill="white"/>
<path d="M230.233 26.906C231.665 26.8914 233.097 26.8768 234.515 26.8914C234.457 27.3587 234.342 27.7968 234.182 28.2349C233.936 28.9505 233.806 29.7098 233.618 30.4546C232.157 30.4546 230.681 30.4692 229.22 30.4546C229.466 29.5054 229.741 28.5708 230.016 27.6362C230.083 27.3928 230.156 27.1494 230.233 26.906Z" fill="white"/>
<path d="M208.083 28.6292C208.416 28.3956 208.778 28.7168 209.111 28.8191C209.704 29.1111 210.384 28.9797 211.006 29.1257C211.223 29.2571 211.411 29.447 211.613 29.6076C211.454 29.7975 211.324 29.9873 211.15 30.1333C210.76 30.2794 210.326 30.2356 209.921 30.2502C208.865 30.2064 207.794 30.3524 206.767 30.0457C206.834 29.8607 206.907 29.6709 206.984 29.4762C207.346 29.1987 207.693 28.8775 208.083 28.6292Z" fill="white"/>
<path d="M32.4936 30.8343C32.619 30.7369 32.7444 30.6396 32.8698 30.5422C33.217 30.7613 33.5642 30.9657 33.8969 31.214C34.6058 31.9733 35.4449 32.7765 35.5896 33.8571C35.4883 34.7771 34.6637 35.3467 34.0416 35.9454C33.6944 36.2375 33.3616 36.6756 32.8553 36.661C30.0197 36.6317 27.1841 36.6756 24.3485 36.6463C24.2038 36.4273 24.0447 36.2229 23.9 36.0038C26.2582 35.9892 28.6164 36.0038 30.9745 36.0038C31.1626 35.9892 31.3796 36.0184 31.5388 35.887C32.1609 35.4781 32.7106 34.9232 33.2459 34.4121C33.6655 34.047 33.9114 33.4775 33.8101 32.9079C33.6655 32.061 33.0144 31.4476 32.4936 30.8343Z" fill="#E1E1E1"/>
<path d="M7.08899 32.6597C7.50854 32.4991 7.94256 32.353 8.40551 32.3676C9.93905 32.3676 11.4871 32.3384 13.0206 32.4114C12.9145 32.5477 12.8084 32.6889 12.7023 32.8349C10.836 32.7619 8.95527 32.8057 7.08899 32.6597Z" fill="#E1E1E1"/>
<path d="M44.456 39V33.4H47.288C47.8 33.4 48.2507 33.4747 48.64 33.624C49.0347 33.7733 49.3653 33.9787 49.632 34.24C49.8987 34.496 50.0987 34.792 50.232 35.128C50.3653 35.464 50.432 35.8213 50.432 36.2C50.432 36.584 50.3653 36.9467 50.232 37.288C50.0987 37.624 49.8987 37.92 49.632 38.176C49.3653 38.432 49.0347 38.6347 48.64 38.784C48.2507 38.928 47.8 39 47.288 39H44.456ZM45.32 38.256L45.296 38.168H47.248C47.648 38.168 47.9893 38.1173 48.272 38.016C48.56 37.9147 48.7947 37.7733 48.976 37.592C49.1573 37.4107 49.2907 37.2027 49.376 36.968C49.4667 36.728 49.512 36.472 49.512 36.2C49.512 35.9333 49.4667 35.6827 49.376 35.448C49.2907 35.2133 49.1573 35.0053 48.976 34.824C48.7947 34.6373 48.56 34.4933 48.272 34.392C47.9893 34.2853 47.648 34.232 47.248 34.232H45.272L45.32 34.16V38.256ZM53.2131 39V34.8H54.0451V36.328L53.8051 36.28C53.8905 35.992 54.0318 35.7307 54.2291 35.496C54.4265 35.256 54.6558 35.0667 54.9171 34.928C55.1785 34.784 55.4478 34.712 55.7251 34.712C55.9225 34.712 56.1145 34.7333 56.3011 34.776C56.4878 34.8187 56.6345 34.8773 56.7411 34.952L56.5251 35.8C56.4078 35.7307 56.2611 35.6773 56.0851 35.64C55.9145 35.5973 55.7545 35.576 55.6051 35.576C55.3651 35.576 55.1491 35.616 54.9571 35.696C54.7651 35.776 54.5998 35.8827 54.4611 36.016C54.3278 36.144 54.2238 36.288 54.1491 36.448C54.0798 36.6027 54.0451 36.76 54.0451 36.92V39H53.2131ZM59.4551 39V34.8H60.2791V39H59.4551ZM59.8551 33.792C59.6791 33.792 59.5431 33.7467 59.4471 33.656C59.3511 33.5653 59.3031 33.4373 59.3031 33.272C59.3031 33.1173 59.3511 32.992 59.4471 32.896C59.5485 32.8 59.6845 32.752 59.8551 32.752C60.0311 32.752 60.1671 32.7973 60.2631 32.888C60.3591 32.9787 60.4071 33.1067 60.4071 33.272C60.4071 33.4267 60.3565 33.552 60.2551 33.648C60.1591 33.744 60.0258 33.792 59.8551 33.792ZM65.0718 39L62.6878 34.8H63.6558L65.5758 38.36L65.3438 38.432L67.3518 34.8H68.2798L65.8238 39H65.0718ZM72.6598 39.08C72.1051 39.08 71.6118 38.9893 71.1798 38.808C70.7478 38.6213 70.4091 38.368 70.1638 38.048C69.9238 37.7227 69.8038 37.3547 69.8038 36.944C69.8038 36.592 69.8758 36.28 70.0197 36.008C70.1691 35.7307 70.3718 35.496 70.6278 35.304C70.8891 35.112 71.1878 34.9653 71.5238 34.864C71.8598 34.7573 72.2144 34.704 72.5878 34.704C72.9398 34.704 73.2704 34.7547 73.5798 34.856C73.8891 34.952 74.1611 35.0907 74.3958 35.272C74.6304 35.4533 74.8118 35.6693 74.9398 35.92C75.0731 36.1653 75.1371 36.44 75.1318 36.744L75.1238 37.176H70.5718L70.3878 36.52H74.4118L74.2918 36.576V36.384C74.2651 36.2027 74.1664 36.0427 73.9958 35.904C73.8304 35.7653 73.6224 35.6587 73.3718 35.584C73.1264 35.504 72.8651 35.464 72.5878 35.464C72.2251 35.464 71.8944 35.5093 71.5958 35.6C71.2971 35.6907 71.0598 35.84 70.8838 36.048C70.7078 36.256 70.6198 36.536 70.6198 36.888C70.6198 37.176 70.7131 37.4267 70.8997 37.64C71.0864 37.8533 71.3451 38.0187 71.6758 38.136C72.0064 38.2533 72.3878 38.312 72.8198 38.312C73.2518 38.312 73.6091 38.256 73.8918 38.144C74.1744 38.032 74.4038 37.9253 74.5798 37.824L74.9398 38.448C74.7798 38.5547 74.5771 38.6587 74.3318 38.76C74.0918 38.856 73.8278 38.9333 73.5398 38.992C73.2518 39.0507 72.9584 39.08 72.6598 39.08ZM83.0999 39V34.232H80.9719V33.4H86.1399V34.232H83.9639V39H83.0999ZM88.2209 39V34.8H89.0529V36.328L88.8129 36.28C88.8983 35.992 89.0396 35.7307 89.2369 35.496C89.4343 35.256 89.6636 35.0667 89.9249 34.928C90.1863 34.784 90.4556 34.712 90.7329 34.712C90.9303 34.712 91.1223 34.7333 91.3089 34.776C91.4956 34.8187 91.6423 34.8773 91.7489 34.952L91.5329 35.8C91.4156 35.7307 91.2689 35.6773 91.0929 35.64C90.9223 35.5973 90.7623 35.576 90.6129 35.576C90.3729 35.576 90.1569 35.616 89.9649 35.696C89.7729 35.776 89.6076 35.8827 89.4689 36.016C89.3356 36.144 89.2316 36.288 89.1569 36.448C89.0876 36.6027 89.0529 36.76 89.0529 36.92V39H88.2209ZM96.1829 39.08C95.8149 39.08 95.4896 38.9947 95.2069 38.824C94.9243 38.648 94.7029 38.3973 94.5429 38.072C94.3883 37.7467 94.3109 37.36 94.3109 36.912V34.8H95.1349V36.608C95.1349 36.9707 95.1829 37.2747 95.2789 37.52C95.3749 37.7653 95.5243 37.9493 95.7269 38.072C95.9349 38.1947 96.1989 38.256 96.5189 38.256C96.7376 38.256 96.9429 38.224 97.1349 38.16C97.3323 38.0907 97.5056 37.992 97.6549 37.864C97.8043 37.7307 97.9216 37.5733 98.0069 37.392C98.0923 37.2053 98.1349 36.9973 98.1349 36.768V34.8H98.9589V39H98.1349V38.12L98.2789 38.024C98.2096 38.184 98.0816 38.3467 97.8949 38.512C97.7083 38.672 97.4709 38.808 97.1829 38.92C96.8949 39.0267 96.5616 39.08 96.1829 39.08ZM103.907 39.08C103.416 39.08 102.965 39.0187 102.555 38.896C102.144 38.7733 101.8 38.5653 101.523 38.272L102.083 37.752C102.296 37.9493 102.549 38.1067 102.843 38.224C103.136 38.336 103.459 38.392 103.811 38.392C103.949 38.392 104.093 38.3867 104.243 38.376C104.397 38.36 104.544 38.3333 104.683 38.296C104.821 38.2587 104.933 38.2053 105.019 38.136C105.104 38.0667 105.147 37.976 105.147 37.864C105.147 37.6827 104.995 37.552 104.691 37.472C104.536 37.4293 104.371 37.392 104.195 37.36C104.019 37.3227 103.832 37.2907 103.635 37.264C103.309 37.2053 103.008 37.144 102.731 37.08C102.459 37.0107 102.229 36.912 102.043 36.784C101.909 36.688 101.805 36.5707 101.731 36.432C101.656 36.2933 101.618 36.1253 101.618 35.928C101.618 35.7413 101.672 35.5733 101.779 35.424C101.891 35.2747 102.043 35.1467 102.235 35.04C102.427 34.9333 102.651 34.8533 102.907 34.8C103.168 34.7413 103.451 34.712 103.755 34.712C104 34.712 104.259 34.736 104.531 34.784C104.808 34.8267 105.072 34.8987 105.323 35C105.573 35.096 105.784 35.224 105.955 35.384L105.523 35.952C105.373 35.8453 105.197 35.7493 104.995 35.664C104.792 35.5787 104.584 35.512 104.371 35.464C104.157 35.416 103.952 35.392 103.755 35.392C103.621 35.392 103.477 35.4 103.323 35.416C103.173 35.4267 103.032 35.4507 102.899 35.488C102.765 35.5253 102.656 35.5787 102.571 35.648C102.485 35.712 102.443 35.7947 102.443 35.896C102.443 35.96 102.461 36.0187 102.499 36.072C102.541 36.12 102.597 36.1653 102.667 36.208C102.8 36.288 102.973 36.3547 103.187 36.408C103.405 36.456 103.643 36.5013 103.899 36.544C104.192 36.5867 104.48 36.6427 104.763 36.712C105.045 36.776 105.288 36.8667 105.491 36.984C105.64 37.0693 105.757 37.1707 105.843 37.288C105.933 37.4053 105.979 37.5467 105.979 37.712C105.979 38.0107 105.885 38.2613 105.699 38.464C105.512 38.6667 105.261 38.8213 104.947 38.928C104.637 39.0293 104.291 39.08 103.907 39.08ZM109.289 39V33.488H110.114V39H109.289ZM107.938 35.6V34.8H111.73V35.6H107.938ZM114.157 40.624L113.773 40.184C114.029 40.0347 114.237 39.888 114.397 39.744C114.563 39.6053 114.645 39.4773 114.645 39.36C114.645 39.264 114.611 39.1867 114.541 39.128C114.472 39.0693 114.392 39.0133 114.301 38.96C114.189 38.896 114.08 38.824 113.973 38.744C113.872 38.664 113.821 38.5493 113.821 38.4C113.821 38.2027 113.891 38.0587 114.029 37.968C114.173 37.872 114.344 37.824 114.541 37.824C114.723 37.824 114.896 37.8747 115.061 37.976C115.227 38.0773 115.36 38.2133 115.461 38.384C115.568 38.5547 115.621 38.7467 115.621 38.96C115.621 39.12 115.579 39.28 115.493 39.44C115.408 39.6053 115.293 39.7627 115.149 39.912C115.011 40.0667 114.853 40.2027 114.677 40.32C114.507 40.4427 114.333 40.544 114.157 40.624ZM122.159 39V33.4H125.431C125.762 33.4 126.063 33.4773 126.335 33.632C126.612 33.7813 126.834 33.9867 126.999 34.248C127.164 34.5093 127.247 34.8 127.247 35.12C127.247 35.456 127.156 35.7627 126.975 36.04C126.794 36.312 126.554 36.5307 126.255 36.696C125.956 36.856 125.628 36.936 125.271 36.936H123.023V39H122.159ZM126.495 39L124.591 36.472L125.511 36.272L127.575 39.008L126.495 39ZM123.023 36.104H125.191C125.394 36.104 125.58 36.0587 125.751 35.968C125.927 35.8773 126.066 35.7573 126.167 35.608C126.274 35.4587 126.327 35.296 126.327 35.12C126.327 34.9547 126.274 34.8053 126.167 34.672C126.066 34.5387 125.927 34.432 125.751 34.352C125.58 34.272 125.394 34.232 125.191 34.232H123.023V36.104ZM130.541 39V34.8H131.365V39H130.541ZM130.941 33.792C130.765 33.792 130.629 33.7467 130.533 33.656C130.437 33.5653 130.389 33.4373 130.389 33.272C130.389 33.1173 130.437 32.992 130.533 32.896C130.634 32.8 130.77 32.752 130.941 32.752C131.117 32.752 131.253 32.7973 131.349 32.888C131.445 32.9787 131.493 33.1067 131.493 33.272C131.493 33.4267 131.442 33.552 131.341 33.648C131.245 33.744 131.112 33.792 130.941 33.792ZM136.55 39.08C136.043 39.08 135.6 38.9867 135.222 38.8C134.848 38.6133 134.56 38.3547 134.358 38.024C134.155 37.6933 134.054 37.3173 134.054 36.896C134.054 36.4693 134.16 36.0933 134.374 35.768C134.592 35.4373 134.894 35.1787 135.278 34.992C135.662 34.8053 136.102 34.712 136.598 34.712C136.907 34.712 137.195 34.7493 137.462 34.824C137.728 34.8933 137.96 34.9867 138.158 35.104C138.355 35.2213 138.507 35.3467 138.614 35.48C138.726 35.6133 138.782 35.744 138.782 35.872L138.542 35.888V33.08H139.366V39H138.542V37.84L138.702 37.904C138.702 38.0267 138.643 38.1573 138.526 38.296C138.408 38.4293 138.248 38.5573 138.046 38.68C137.848 38.7973 137.619 38.8933 137.358 38.968C137.102 39.0427 136.832 39.08 136.55 39.08ZM136.734 38.32C137.096 38.32 137.416 38.2587 137.694 38.136C137.971 38.008 138.187 37.8373 138.342 37.624C138.496 37.4053 138.574 37.1627 138.574 36.896C138.574 36.6293 138.496 36.3893 138.342 36.176C138.187 35.9627 137.971 35.7947 137.694 35.672C137.416 35.544 137.096 35.48 136.734 35.48C136.376 35.48 136.059 35.544 135.782 35.672C135.504 35.7947 135.286 35.9627 135.126 36.176C134.971 36.3893 134.894 36.6293 134.894 36.896C134.894 37.1627 134.971 37.4053 135.126 37.624C135.286 37.8373 135.504 38.008 135.782 38.136C136.059 38.2587 136.376 38.32 136.734 38.32ZM144.621 39.08C144.066 39.08 143.573 38.9893 143.141 38.808C142.709 38.6213 142.37 38.368 142.125 38.048C141.885 37.7227 141.765 37.3547 141.765 36.944C141.765 36.592 141.837 36.28 141.981 36.008C142.13 35.7307 142.333 35.496 142.589 35.304C142.85 35.112 143.149 34.9653 143.485 34.864C143.821 34.7573 144.175 34.704 144.549 34.704C144.901 34.704 145.231 34.7547 145.541 34.856C145.85 34.952 146.122 35.0907 146.357 35.272C146.591 35.4533 146.773 35.6693 146.901 35.92C147.034 36.1653 147.098 36.44 147.093 36.744L147.085 37.176H142.533L142.349 36.52H146.373L146.253 36.576V36.384C146.226 36.2027 146.127 36.0427 145.957 35.904C145.791 35.7653 145.583 35.6587 145.333 35.584C145.087 35.504 144.826 35.464 144.549 35.464C144.186 35.464 143.855 35.5093 143.557 35.6C143.258 35.6907 143.021 35.84 142.845 36.048C142.669 36.256 142.581 36.536 142.581 36.888C142.581 37.176 142.674 37.4267 142.861 37.64C143.047 37.8533 143.306 38.0187 143.637 38.136C143.967 38.2533 144.349 38.312 144.781 38.312C145.213 38.312 145.57 38.256 145.853 38.144C146.135 38.032 146.365 37.9253 146.541 37.824L146.901 38.448C146.741 38.5547 146.538 38.6587 146.293 38.76C146.053 38.856 145.789 38.9333 145.501 38.992C145.213 39.0507 144.919 39.08 144.621 39.08ZM153.589 39V33.4H158.237V34.232H154.453V38.168H158.237V39H153.589ZM154.061 36.544V35.712H157.797V36.544H154.061ZM165.044 39L163.18 37.136L163.02 36.968L160.876 34.8H162.116L163.724 36.584L163.868 36.728L166.252 39H165.044ZM160.724 39L162.86 36.76L163.428 37.256L161.892 39H160.724ZM163.916 37.016L163.42 36.44L165.012 34.8H166.188L163.916 37.016ZM170.851 39.08C170.36 39.08 169.918 38.984 169.523 38.792C169.134 38.6 168.824 38.3387 168.595 38.008C168.366 37.6773 168.251 37.3067 168.251 36.896C168.251 36.48 168.366 36.1093 168.595 35.784C168.824 35.4533 169.134 35.192 169.523 35C169.918 34.808 170.36 34.712 170.851 34.712C171.342 34.712 171.798 34.784 172.219 34.928C172.64 35.072 172.971 35.272 173.211 35.528L172.747 36.2C172.603 36.0613 172.424 35.936 172.211 35.824C172.003 35.712 171.782 35.624 171.547 35.56C171.312 35.4907 171.08 35.456 170.851 35.456C170.51 35.456 170.208 35.52 169.947 35.648C169.686 35.7707 169.48 35.9413 169.331 36.16C169.187 36.3733 169.115 36.6187 169.115 36.896C169.115 37.1733 169.192 37.4213 169.347 37.64C169.507 37.8533 169.718 38.024 169.979 38.152C170.246 38.2747 170.539 38.336 170.859 38.336C171.147 38.336 171.406 38.3067 171.635 38.248C171.87 38.184 172.078 38.1067 172.259 38.016C172.446 37.9253 172.614 37.8373 172.763 37.752L173.211 38.392C172.912 38.5733 172.568 38.7333 172.179 38.872C171.795 39.0107 171.352 39.08 170.851 39.08ZM178.066 39.08C177.511 39.08 177.018 38.9893 176.586 38.808C176.154 38.6213 175.815 38.368 175.57 38.048C175.33 37.7227 175.21 37.3547 175.21 36.944C175.21 36.592 175.282 36.28 175.426 36.008C175.575 35.7307 175.778 35.496 176.034 35.304C176.295 35.112 176.594 34.9653 176.93 34.864C177.266 34.7573 177.621 34.704 177.994 34.704C178.346 34.704 178.677 34.7547 178.986 34.856C179.295 34.952 179.567 35.0907 179.802 35.272C180.037 35.4533 180.218 35.6693 180.346 35.92C180.479 36.1653 180.543 36.44 180.538 36.744L180.53 37.176H175.978L175.794 36.52H179.818L179.698 36.576V36.384C179.671 36.2027 179.573 36.0427 179.402 35.904C179.237 35.7653 179.029 35.6587 178.778 35.584C178.533 35.504 178.271 35.464 177.994 35.464C177.631 35.464 177.301 35.5093 177.002 35.6C176.703 35.6907 176.466 35.84 176.29 36.048C176.114 36.256 176.026 36.536 176.026 36.888C176.026 37.176 176.119 37.4267 176.306 37.64C176.493 37.8533 176.751 38.0187 177.082 38.136C177.413 38.2533 177.794 38.312 178.226 38.312C178.658 38.312 179.015 38.256 179.298 38.144C179.581 38.032 179.81 37.9253 179.986 37.824L180.346 38.448C180.186 38.5547 179.983 38.6587 179.738 38.76C179.498 38.856 179.234 38.9333 178.946 38.992C178.658 39.0507 178.365 39.08 178.066 39.08ZM183.375 39V33.08H184.199V39H183.375ZM187.563 39V33.08H188.387V39H187.563ZM193.808 39.08C193.254 39.08 192.76 38.9893 192.328 38.808C191.896 38.6213 191.558 38.368 191.312 38.048C191.072 37.7227 190.952 37.3547 190.952 36.944C190.952 36.592 191.024 36.28 191.168 36.008C191.318 35.7307 191.52 35.496 191.776 35.304C192.038 35.112 192.336 34.9653 192.672 34.864C193.008 34.7573 193.363 34.704 193.736 34.704C194.088 34.704 194.419 34.7547 194.728 34.856C195.038 34.952 195.31 35.0907 195.544 35.272C195.779 35.4533 195.96 35.6693 196.088 35.92C196.222 36.1653 196.286 36.44 196.28 36.744L196.272 37.176H191.72L191.536 36.52H195.56L195.44 36.576V36.384C195.414 36.2027 195.315 36.0427 195.144 35.904C194.979 35.7653 194.771 35.6587 194.52 35.584C194.275 35.504 194.014 35.464 193.736 35.464C193.374 35.464 193.043 35.5093 192.744 35.6C192.446 35.6907 192.208 35.84 192.032 36.048C191.856 36.256 191.768 36.536 191.768 36.888C191.768 37.176 191.862 37.4267 192.048 37.64C192.235 37.8533 192.494 38.0187 192.824 38.136C193.155 38.2533 193.536 38.312 193.968 38.312C194.4 38.312 194.758 38.256 195.04 38.144C195.323 38.032 195.552 37.9253 195.728 37.824L196.088 38.448C195.928 38.5547 195.726 38.6587 195.48 38.76C195.24 38.856 194.976 38.9333 194.688 38.992C194.4 39.0507 194.107 39.08 193.808 39.08ZM199.198 39V34.8H200.022V35.984L199.718 36C199.84 35.7973 199.998 35.5973 200.19 35.4C200.387 35.2027 200.619 35.04 200.886 34.912C201.158 34.7787 201.462 34.712 201.798 34.712C202.24 34.712 202.608 34.7947 202.902 34.96C203.2 35.12 203.424 35.3387 203.574 35.616C203.723 35.888 203.798 36.1893 203.798 36.52V39H202.974V36.656C202.974 36.4213 202.91 36.216 202.782 36.04C202.659 35.864 202.494 35.728 202.286 35.632C202.083 35.5307 201.856 35.48 201.606 35.48C201.376 35.48 201.163 35.5227 200.966 35.608C200.774 35.688 200.606 35.7947 200.462 35.928C200.323 36.056 200.214 36.1947 200.134 36.344C200.059 36.4933 200.022 36.6373 200.022 36.776V39H199.614C199.475 39 199.371 39 199.302 39C199.232 39 199.198 39 199.198 39ZM209.195 39.08C208.704 39.08 208.261 38.984 207.867 38.792C207.477 38.6 207.168 38.3387 206.939 38.008C206.709 37.6773 206.595 37.3067 206.595 36.896C206.595 36.48 206.709 36.1093 206.939 35.784C207.168 35.4533 207.477 35.192 207.867 35C208.261 34.808 208.704 34.712 209.195 34.712C209.685 34.712 210.141 34.784 210.563 34.928C210.984 35.072 211.315 35.272 211.555 35.528L211.091 36.2C210.947 36.0613 210.768 35.936 210.555 35.824C210.347 35.712 210.125 35.624 209.891 35.56C209.656 35.4907 209.424 35.456 209.195 35.456C208.853 35.456 208.552 35.52 208.291 35.648C208.029 35.7707 207.824 35.9413 207.675 36.16C207.531 36.3733 207.459 36.6187 207.459 36.896C207.459 37.1733 207.536 37.4213 207.691 37.64C207.851 37.8533 208.061 38.024 208.323 38.152C208.589 38.2747 208.883 38.336 209.203 38.336C209.491 38.336 209.749 38.3067 209.979 38.248C210.213 38.184 210.421 38.1067 210.603 38.016C210.789 37.9253 210.957 37.8373 211.107 37.752L211.555 38.392C211.256 38.5733 210.912 38.7333 210.523 38.872C210.139 39.0107 209.696 39.08 209.195 39.08ZM216.41 39.08C215.855 39.08 215.362 38.9893 214.93 38.808C214.498 38.6213 214.159 38.368 213.914 38.048C213.674 37.7227 213.554 37.3547 213.554 36.944C213.554 36.592 213.626 36.28 213.77 36.008C213.919 35.7307 214.122 35.496 214.378 35.304C214.639 35.112 214.938 34.9653 215.274 34.864C215.61 34.7573 215.964 34.704 216.338 34.704C216.69 34.704 217.02 34.7547 217.33 34.856C217.639 34.952 217.911 35.0907 218.146 35.272C218.38 35.4533 218.562 35.6693 218.69 35.92C218.823 36.1653 218.887 36.44 218.882 36.744L218.874 37.176H214.322L214.138 36.52H218.162L218.042 36.576V36.384C218.015 36.2027 217.916 36.0427 217.746 35.904C217.58 35.7653 217.372 35.6587 217.122 35.584C216.876 35.504 216.615 35.464 216.338 35.464C215.975 35.464 215.644 35.5093 215.346 35.6C215.047 35.6907 214.81 35.84 214.634 36.048C214.458 36.256 214.37 36.536 214.37 36.888C214.37 37.176 214.463 37.4267 214.65 37.64C214.836 37.8533 215.095 38.0187 215.426 38.136C215.756 38.2533 216.138 38.312 216.57 38.312C217.002 38.312 217.359 38.256 217.642 38.144C217.924 38.032 218.154 37.9253 218.33 37.824L218.69 38.448C218.53 38.5547 218.327 38.6587 218.082 38.76C217.842 38.856 217.578 38.9333 217.29 38.992C217.002 39.0507 216.708 39.08 216.41 39.08Z" fill="white"/>
</svg>
