<svg width="25" height="31" viewBox="0 0 25 31" fill="none" xmlns="http://www.w3.org/2000/svg">
<path d="M12.48 0.838379C10.8545 0.839046 9.24507 1.16074 7.74419 1.78501C6.24331 2.40927 4.8805 3.32381 3.73398 4.47613C2.58746 5.62845 1.67981 6.99585 1.06312 8.49986C0.446436 10.0039 0.132859 11.6149 0.140391 13.2404C0.140391 21.81 8.98039 29.6672 11.7 31.7472C11.9283 31.9357 12.2151 32.0388 12.5112 32.0388C12.8073 32.0388 13.0941 31.9357 13.3224 31.7472C16.0472 29.6048 24.8144 21.81 24.8144 13.2404C24.8219 11.6153 24.5085 10.0047 23.8922 8.50106C23.2758 6.99739 22.3686 5.63022 21.2226 4.47797C20.0767 3.32572 18.7145 2.41107 17.2142 1.7865C15.7139 1.16193 14.1051 0.839731 12.48 0.838379ZM12.48 18.3676C11.4515 18.3676 10.4462 18.0626 9.59103 17.4912C8.73589 16.9198 8.06939 16.1077 7.67582 15.1575C7.28224 14.2074 7.17926 13.1618 7.37991 12.1531C7.58055 11.1444 8.0758 10.2179 8.80304 9.49062C9.53027 8.76339 10.4568 8.26814 11.4655 8.0675C12.4742 7.86685 13.5198 7.96983 14.4699 8.36341C15.4201 8.75698 16.2323 9.42348 16.8036 10.2786C17.375 11.1337 17.68 12.1391 17.68 13.1676C17.68 14.5467 17.1321 15.8693 16.1569 16.8445C15.1818 17.8197 13.8591 18.3676 12.48 18.3676Z" fill="#EB1C28"/>
</svg>
