<svg width="12" height="12" viewBox="0 0 12 12" fill="none" xmlns="http://www.w3.org/2000/svg">
<path fill-rule="evenodd" clip-rule="evenodd" d="M5.79944 1.0912C3.55029 1.17761 1.6093 2.69461 0.9821 4.85627C0.354896 7.01792 1.18248 9.33822 3.03608 10.6151C3.31424 10.8067 3.64406 10.9093 3.98183 10.9093C5.32729 10.9093 6.67275 10.9093 8.01821 10.9093C8.35599 10.9093 8.6858 10.8067 8.96397 10.6151C10.8176 9.33822 11.6452 7.01792 11.0179 4.85627C10.3907 2.69461 8.44975 1.17761 6.20061 1.0912C6.05187 1.09107 5.94481 1.09021 5.79944 1.0912ZM5.98448 2.32897H5.98464H5.98481C5.99527 2.32986 6.00551 2.32941 6.01524 2.32897H6.0154H6.01557C7.80506 2.33596 9.37031 3.53552 9.84227 5.26166C9.82723 5.26578 9.82724 5.2658 9.84227 5.26166C9.87257 5.37249 9.78891 5.48212 9.67401 5.48212H6.00002H2.32603C2.21113 5.48212 2.12747 5.37251 2.15777 5.26168C2.1728 5.26581 2.17282 5.26579 2.15777 5.26168C2.62974 3.53554 4.19499 2.33596 5.98448 2.32897ZM2.2246 6.6667C2.23903 6.66645 2.25382 6.66799 2.26874 6.67157C3.6829 7.01017 4.82064 8.05738 5.27506 9.43869C5.31212 9.55133 5.22792 9.66768 5.10933 9.66768H3.98183C3.89561 9.66768 3.81142 9.6415 3.74041 9.59258C2.82158 8.95966 2.21032 7.97036 2.05535 6.86545C2.04044 6.7591 2.12362 6.66854 2.2246 6.6667ZM9.77545 6.6667C9.87643 6.66854 9.95961 6.7591 9.94469 6.86545C9.78973 7.97036 9.17847 8.95966 8.25964 9.59258C8.18863 9.6415 8.10444 9.66768 8.01821 9.66768H6.89071C6.77213 9.66768 6.68793 9.55133 6.72498 9.43869C7.1794 8.05738 8.31714 7.01017 9.73131 6.67157C9.74623 6.66799 9.76102 6.66644 9.77545 6.6667Z" fill="#FEF201"/>
</svg>
